<?xml version="1.0" encoding="utf-8"?>
<!-- Generator: Adobe Illustrator 27.5.0, SVG Export Plug-In . SVG Version: 6.00 Build 0)  -->
<svg version="1.1" xmlns="http://www.w3.org/2000/svg" xmlns:xlink="http://www.w3.org/1999/xlink" x="0px" y="0px"
	 viewBox="0 0 750 500" style="enable-background:new 0 0 750 500;" xml:space="preserve">
<g id="BACKGROUND">
	<ellipse style="opacity:0.5;fill:#E6E6E6;" cx="375" cy="420.046" rx="323.048" ry="14.997"/>
	<g>
		<g>
			<path style="fill:#B7B7F7;" d="M719.632,341.198c-2.061-20.585-16.702-38.604-33.807-50.688
				c-18.353-12.966-39.756-20.815-59.465-31.607c-7.266-3.979-14.837-9.008-17.372-16.894c-3.122-9.71,2.575-20.068,9.457-27.596
				c6.881-7.528,15.335-14.017,19.618-23.274c5.205-11.25,3.115-24.926-3.15-35.621c-6.266-10.696-16.219-18.769-26.792-25.239
				c-30.774-18.831-74.253-24.074-100.744,0.418c-14.324,13.243-24.95,35.035-44.456,35.273
				c-19.205,0.235-30.396-20.659-44.473-33.725c-21.074-19.562-55.525-20.393-79.229-5.173
				c-12.739,8.18-20.416,21.915-32.585,30.699c-6.184,4.465-13.462,7.595-21.219,7.148c-20.245-1.167-31.013-23.694-46.424-36.874
				c-25.593-21.888-65.58-16.726-94.625,0.317c-11.555,6.78-22.417,15.482-28.978,27.163c-6.561,11.681-8.159,26.753-1.557,38.41
				c8.14,14.371,27.619,23.134,27.847,39.648c0.164,11.884-10.272,21.036-20.471,27.139c-17.274,10.337-36.487,17.141-53.664,27.637
				c-17.177,10.496-32.871,25.962-36.741,45.717c-5.181,26.444,13.123,53.276,37.138,65.499
				c24.395,12.416,52.95,12.657,80.323,12.63c153.074-0.154,306.149-0.308,459.223-0.462c26.056-0.026,53.251-0.316,76.409-12.259
				c20.171-10.402,36.17-31.043,35.985-53.738C719.866,344.217,719.782,342.701,719.632,341.198z"/>
		</g>
		<g>
			<g>
				<circle style="fill:#B7B7F7;" cx="390.313" cy="72.783" r="8.087"/>
				<circle style="fill:#B7B7F7;" cx="386.269" cy="94.761" r="4.043"/>
				<path style="fill:#B7B7F7;" d="M370.289,79.51c-2.427,1.401-3.259,4.505-1.857,6.932c1.401,2.427,4.505,3.259,6.932,1.857
					c2.427-1.401,3.259-4.505,1.857-6.932C375.819,78.94,372.716,78.109,370.289,79.51z"/>
			</g>
			<g>
				
					<ellipse transform="matrix(0.9871 -0.1602 0.1602 0.9871 -12.9326 78.5714)" style="fill:#B7B7F7;" cx="480.88" cy="119.501" rx="11.01" ry="11.009"/>
				<path style="fill:#B7B7F7;" d="M469.871,149.422c0,3.04,2.465,5.505,5.505,5.505c3.04,0,5.505-2.464,5.505-5.505
					c0-3.04-2.465-5.505-5.505-5.505C472.335,143.917,469.871,146.382,469.871,149.422z"/>
				<path style="fill:#B7B7F7;" d="M453.619,128.659c-3.304,1.908-4.436,6.133-2.529,9.437c1.908,3.304,6.133,4.436,9.437,2.529
					c3.304-1.908,4.436-6.133,2.529-9.437C461.149,127.883,456.924,126.751,453.619,128.659z"/>
			</g>
			<g>
				
					<ellipse transform="matrix(0.3853 -0.9228 0.9228 0.3853 90.897 334.0583)" style="fill:#B7B7F7;" cx="296.184" cy="98.804" rx="11.009" ry="11.01"/>
				<path style="fill:#B7B7F7;" d="M285.174,128.725c0,3.04,2.465,5.505,5.505,5.505s5.505-2.464,5.505-5.505
					c0-3.04-2.465-5.505-5.505-5.505S285.174,125.685,285.174,128.725z"/>
				<path style="fill:#B7B7F7;" d="M268.923,107.962c-3.304,1.908-4.436,6.133-2.529,9.437c1.908,3.304,6.133,4.436,9.437,2.529
					c3.304-1.908,4.436-6.133,2.529-9.437C276.452,107.186,272.227,106.054,268.923,107.962z"/>
			</g>
		</g>
	</g>
</g>
<g id="OBJECTS">
	<g>
		<g>
			<g>
				<g>
					<g>
						<path style="fill:#5255EE;" d="M665.767,262.659c-11.661-4.436-1.148-9.626,6.172-11.697
							c5.921-1.675,20.749-4.406,14.731-14.513c-6.304-10.587-12.342,2.489-17.357,3.965c-11.207,3.299,0.456-10.759,3.239-14.508
							c3.814-5.136,11.837-15.628,1.93-17.377c-8.012-1.414-16.31,9.749-19.634,15.313c-2.37,3.967-8.196,22.546-14.26,18.427
							c-4.591-3.118,0.158-21.721-10.801-8.425c-4.457,5.406-3.738,14.094-5.747,20.278c-2.943,9.058-4.183,12.812-12.224,10.487
							c-4.167-1.205-4.302-6.435-9.444-2.903c-2.648,1.819-3.432,10.189-3.41,13.095c0.206,26.701,10.882,44.582,15.918,46.888
							c6.818,3.121,19.488-1.387,25.317-4.736c2.899-1.665,8.186-4.416,7.813-8.637c-0.418-4.736-7.731-4.056-8.002-6.837
							c-0.769-7.889,13.743-0.352,17.763-1.477c5.204-1.456,13.825-10.755,8.365-15.674c-0.561-0.505-23.245-2.148-10.268-9.37
							c7.185-3.999,14.89,7.096,21.82-0.781C687.664,262.843,670.14,264.323,665.767,262.659z"/>
					</g>
					<path style="fill:#3329B7;" d="M663.833,266.86c-5.01-2.116-10.189-4.025-15.645-4.489c3.838-4.796,7.86-9.545,10.781-14.87
						c0.823-1.502-1.63-2.539-2.448-1.047c-0.356,0.649-0.753,1.28-1.138,1.915c-0.421-1.628,0.083-4.058,0.236-5.356
						c0.394-3.353,1.657-6.366,2.975-9.441c0.675-1.575-1.772-2.625-2.448-1.048c-1.711,3.99-3.061,7.801-3.363,12.161
						c-0.148,2.143-0.276,4.466,0.968,6.24c-4.126,6.123-9.266,11.763-13.569,17.704c-1.839-2.915-3.19-5.95-3.812-9.403
						c-0.678-3.76-0.219-7.583-0.608-11.368c-0.176-1.705-2.819-1.377-2.643,0.331c0.469,4.552-0.065,9.023,1.08,13.511
						c0.862,3.383,2.409,6.373,4.33,9.261c-4.946,7.15-9.513,14.584-13.267,22.433c-1.247,2.607-2.385,5.264-3.488,7.939
						c-2.483-3.713-4.541-7.586-5.972-11.853c-0.795-2.372-1.678-4.887-1.996-7.372c-0.241-1.883-0.042-3.66-0.783-5.444
						c-0.657-1.584-3.13-0.596-2.472,0.991c0.908,2.187,0.601,5.038,1.177,7.377c0.556,2.257,1.244,4.499,2.028,6.688
						c1.603,4.478,3.963,8.542,6.686,12.423c0.04,0.057,0.091,0.08,0.134,0.127c-1.86,4.62-3.678,9.259-5.747,13.779
						c-0.165,0.128-0.312,0.292-0.409,0.537c-0.2,0.507-0.592,1.207-0.722,1.822c-3.698,9.333-7.422,18.662-11,28.041
						c-0.609,1.597,1.836,2.653,2.448,1.047c3.566-9.347,7.277-18.643,10.962-27.944c0.023-0.04,0.054-0.064,0.076-0.108
						c1.182-2.436,2.267-4.919,3.314-7.421c4.844,1.232,10.23-0.184,14.748-1.999c1.592-0.639,0.602-3.112-0.991-2.472
						c-3.929,1.578-8.477,2.805-12.722,1.968c2.33-5.721,4.525-11.507,7.178-17.079c1.056-2.217,2.186-4.395,3.366-6.544
						c0.087,0.062,0.159,0.135,0.272,0.181c6.606,2.681,13.733,3.755,20.804,2.644c1.689-0.265,1.368-2.91-0.331-2.643
						c-6.626,1.041-13.23,0.065-19.425-2.45c-0.013-0.005-0.024-0.002-0.036-0.007c3.638-6.347,7.737-12.43,12.043-18.343
						c0.733-1.007,1.497-2.001,2.271-2.991c0.153,0.367,0.462,0.66,0.994,0.703c5.294,0.422,10.262,2.266,15.118,4.316
						C664.364,269.975,665.414,267.527,663.833,266.86z"/>
				</g>
				<g>
					<g>
						<g>
							<g>
								<path style="fill:#170C4A;" d="M715.048,298.007c-11.775,4.579-23.817,7.335-34.84,13.761
									c-10.593,6.176-20.879,13.186-30.519,20.759c-8.883,6.979-17.394,14.386-26.315,21.331
									c-10.413,8.108-17.751,17.951-26.647,27.49c-1.427,1.53-3.936-0.548-2.504-2.083c8.065-8.648,14.73-17.97,23.988-25.48
									c9.833-7.977,19.642-16.097,29.594-23.915c10.028-7.878,20.758-15.169,31.823-21.511
									c10.822-6.202,22.776-8.929,34.31-13.414C715.892,294.185,717.002,297.247,715.048,298.007L715.048,298.007z"/>
							</g>
							<path style="fill:#170C4A;" d="M712.94,297.117c2.528-1.113,6.994-0.709,9.046,1.209c2.403,2.246,0.201,4.418-2.407,4.918
								c-2.904,0.556-5.895-0.539-8.711-1.09c-2.922-0.571-6.084,0.074-8.824-0.878c1.68-1.314,4.88-2.109,6.921-2.633
								c2.172-0.557,4.176-1.622,6.303-2.199"/>
							<path style="fill:#170C4A;" d="M707.749,299.343c4.477-1.577,11.083-1.073,14.213-5.428c2.049-2.849,1.332-5.433-2.321-5.745
								c-2.772-0.237-5.027,1.598-6.793,3.492c-2.254,2.418-4.933,5.469-6.613,8.231"/>
							<path style="fill:#170C4A;" d="M695.385,302.114c1.627-5.182,3.517-11.767,8.526-14.885c3.122-1.943,3.729,1.867,2.96,4.037
								c-1.752,4.948-6.586,9.145-10.968,11.765L695.385,302.114z"/>
							<path style="fill:#170C4A;" d="M683.734,307.027c0.99-6.559,2.033-14.859,7.492-19.563c3.402-2.932,4.85,1.552,4.331,4.315
								c-1.185,6.3-6.23,12.273-11.025,16.257L683.734,307.027z"/>
							<path style="fill:#170C4A;" d="M658.896,322.634c-0.171-6.63-0.593-14.986,3.96-20.571c2.838-3.48,5.047,0.682,5.017,3.492
								c-0.066,6.41-3.99,13.172-8.016,17.932L658.896,322.634z"/>
							<path style="fill:#170C4A;" d="M638.945,338.271c-2.278-7.502-5.385-16.891-1.951-24.685c2.14-4.858,5.965-0.809,6.815,2.403
								c1.939,7.326-0.408,16.264-3.5,22.953L638.945,338.271z"/>
							<path style="fill:#170C4A;" d="M667.158,316.366c2.149-7.334,4.634-16.652,11.535-21.074
								c4.301-2.756,5.229,2.633,4.208,5.703c-2.33,7.003-8.963,12.952-15.001,16.666L667.158,316.366z"/>
							<path style="fill:#170C4A;" d="M696.376,304.844c4.571,2.934,10.243,6.775,16.086,5.956c3.642-0.51,1.665-3.823-0.316-4.996
								c-4.517-2.674-10.918-2.796-15.96-1.996L696.376,304.844z"/>
							<path style="fill:#170C4A;" d="M669.46,314.968c5.933,1.727,13.361,4.088,19.472,1.31c3.809-1.732,0.583-4.708-1.956-5.349
								c-5.791-1.46-12.814,0.472-18.057,2.97L669.46,314.968z"/>
							<path style="fill:#170C4A;" d="M655.888,328.041c6.362,1.851,14.326,4.383,20.878,1.405c4.084-1.857,0.625-5.048-2.098-5.735
								c-6.209-1.566-13.739,0.506-19.36,3.184L655.888,328.041z"/>
							<path style="fill:#170C4A;" d="M641.741,338.833c8.487,2.12,19.101,5.057,28.088,0.803c5.601-2.651,1.096-6.683-2.542-7.451
								c-8.295-1.751-18.555,1.355-26.271,5.167L641.741,338.833z"/>
							<path style="fill:#170C4A;" d="M649.367,330.502c-1.455-4.067-3.654-7.613-3.808-12.034
								c-0.135-3.84,1.539-7.336,4.009-10.188c1.088-1.257,2.235-2.934,4.057-3.146c2.556-0.298,1.483,2.435,1.003,4.101
								c-1.022,3.546-1.859,7.217-2.487,10.838c-0.347,2-0.733,3.863-1.242,5.763c-0.336,1.254-0.329,3.751-0.87,4.596"/>
							<path style="fill:#170C4A;" d="M658.188,344.074c-4.743,0.058-20.04,1.536-25.921,1.608
								c-1.342,1.076-2.711,2.126-4.094,3.183c9.591,2.324,25.405,3.846,29.582,2.85c1.802-0.429,5.547-1.995,6.194-3.841
								C665.114,344.542,660.259,344.051,658.188,344.074z"/>
							<path style="fill:#170C4A;" d="M644.542,367.482c-5.693-1.264-24.42-3.795-31.48-5.362c-1.909,0.91-3.842,1.784-5.796,2.659
								c10.828,5.478,29.329,11.745,34.609,11.727c2.278-0.006,7.201-0.829,8.494-2.857
								C652.701,369.988,647.027,368.036,644.542,367.482z"/>
							<path style="fill:#170C4A;" d="M624.841,350.5c-0.762-2.549-7.273-10.128-4.448-24.049c0.401-1.975,1.116-4.567,3.221-5.332
								c2.923-1.063,3.139,2.214,3.217,4.287c0.155,4.091-0.367,19.636,0.007,23.513"/>
							<path style="fill:#170C4A;" d="M617.072,357.432c2.87,0.824,5.735,2.61,8.71,3.566c3.189,1.025,20.879,4.03,26.465,2.883
								c2.424-0.498,7.152-0.319,7.753-3.406c0.58-2.981-3.047-4.836-5.386-5.607c-5.432-1.789-31.099,0.02-37.624,1.393"/>
							<path style="fill:#170C4A;" d="M614.703,358.462c-6.719-9.544-9.387-29.302-7.748-31.305c3.556-4.345,8.044,2.425,8.93,5.719
								c1.985,7.385,0.188,24.77-1.044,25.022"/>
						</g>
					</g>
				</g>
				<g>
					<path style="fill:#3329B7;" d="M597.319,373.696c-4.429,3.629-10.122,8.226-14.728,11.588
						c-6.002,4.381-6.002,8.691-0.836,13.871c6.378,6.396,17.73,9.888,26.514,11.287c3.106,0.495,3.687,0.281,3.75-3.245
						c0.046-2.604-0.299-5.019-0.065-7.645c0.453-5.071,1.264-9.419,4.243-13.602c4.698-6.596,5.119,1.6,3.771,5.397
						c-1.57,4.421-2.617,9.199-2.657,13.988c-0.067,8.224,26.791-4.104,30.733-8.813c-3.073-2.339-6.668-11.994-4.281-15.776
						c2.101-3.328,3.004,0.32,3.459,2.527c0.525,2.542,0.769,4.942,2.278,7.048c6.172,8.612,19.028-14.136,21.445-18.817
						c3.18-6.159,6.847-7.061,13.25-7.32c-4.55-5.98-11.18-14.606-19.199-14.912c-3.887-0.148-7.198,2.613-10.255,4.625
						c-2.104,1.385-9.019,4.883-5.325-0.352c2.58-3.655,7.525-4.87,10.067-8.677c-2.068-2.587-9.223-7.324-12.68-6.553
						c-4.139,0.924-5.401,9.04-8.013,11.846c-2.929-4.98,2.699-9.942,4.645-14.02c-5.45-3.931-16.499-8.762-23.609-6.85
						c-10.367,2.788-0.711,16.21,1.25,18.438c1.445,1.641,3.726,4.61-0.154,3.321c-3.403-1.131-7.788-8.658-9.202-11.895
						c-0.69-1.581-0.809-6.089-2.261-7.075c-1.656-1.125-29.226,11.146-32.334,20.268
						C573.898,361.825,589.272,372.494,597.319,373.696z"/>
				</g>
			</g>
		</g>
		<g>
			<g>
				<g>
					<g>
						<path style="fill:#5255EE;" d="M84.233,262.659c11.661-4.436,1.148-9.626-6.172-11.697
							c-5.921-1.675-20.749-4.406-14.731-14.513c6.303-10.587,12.342,2.489,17.357,3.965c11.207,3.299-0.456-10.759-3.239-14.508
							c-3.814-5.136-11.837-15.628-1.93-17.377c8.012-1.414,16.31,9.749,19.634,15.313c2.369,3.967,8.196,22.546,14.26,18.427
							c4.591-3.118-0.158-21.721,10.801-8.425c4.457,5.406,3.738,14.094,5.747,20.278c2.942,9.058,4.183,12.812,12.224,10.487
							c4.167-1.205,4.302-6.435,9.444-2.903c2.648,1.819,3.432,10.189,3.41,13.095c-0.206,26.701-10.882,44.582-15.918,46.888
							c-6.818,3.121-19.487-1.387-25.317-4.736c-2.898-1.665-8.186-4.416-7.813-8.637c0.418-4.736,7.731-4.056,8.002-6.837
							c0.77-7.889-13.743-0.352-17.763-1.477c-5.204-1.456-13.825-10.755-8.365-15.674c0.561-0.505,23.245-2.148,10.268-9.37
							c-7.185-3.999-14.89,7.096-21.821-0.781C62.336,262.843,79.86,264.323,84.233,262.659z"/>
					</g>
					<path style="fill:#3329B7;" d="M86.167,266.86c5.01-2.116,10.189-4.025,15.645-4.489c-3.838-4.796-7.86-9.545-10.781-14.87
						c-0.823-1.502,1.631-2.539,2.449-1.047c0.356,0.649,0.753,1.28,1.138,1.915c0.421-1.628-0.083-4.058-0.236-5.356
						c-0.394-3.353-1.657-6.366-2.975-9.441c-0.676-1.575,1.772-2.625,2.448-1.048c1.711,3.99,3.061,7.801,3.363,12.161
						c0.148,2.143,0.276,4.466-0.968,6.24c4.126,6.123,9.266,11.763,13.569,17.704c1.839-2.915,3.189-5.95,3.812-9.403
						c0.678-3.76,0.219-7.583,0.608-11.368c0.176-1.705,2.819-1.377,2.643,0.331c-0.469,4.552,0.065,9.023-1.08,13.511
						c-0.862,3.383-2.409,6.373-4.33,9.261c4.946,7.15,9.513,14.584,13.267,22.433c1.247,2.607,2.385,5.264,3.488,7.939
						c2.483-3.713,4.541-7.586,5.972-11.853c0.795-2.372,1.678-4.887,1.996-7.372c0.241-1.883,0.042-3.66,0.783-5.444
						c0.658-1.584,3.13-0.596,2.472,0.991c-0.908,2.187-0.601,5.038-1.177,7.377c-0.556,2.257-1.244,4.499-2.028,6.688
						c-1.603,4.478-3.963,8.542-6.686,12.423c-0.04,0.057-0.091,0.08-0.134,0.127c1.86,4.62,3.678,9.259,5.747,13.779
						c0.165,0.128,0.312,0.292,0.409,0.537c0.199,0.507,0.592,1.207,0.722,1.822c3.698,9.333,7.422,18.662,11.001,28.041
						c0.609,1.597-1.836,2.653-2.448,1.047c-3.566-9.347-7.277-18.643-10.962-27.944c-0.023-0.04-0.054-0.064-0.075-0.108
						c-1.182-2.436-2.267-4.919-3.314-7.421c-4.844,1.232-10.23-0.184-14.748-1.999c-1.592-0.639-0.602-3.112,0.991-2.472
						c3.929,1.578,8.477,2.805,12.722,1.968c-2.33-5.721-4.525-11.507-7.178-17.079c-1.056-2.217-2.186-4.395-3.366-6.544
						c-0.087,0.062-0.159,0.135-0.272,0.181c-6.606,2.681-13.733,3.755-20.804,2.644c-1.689-0.265-1.368-2.91,0.331-2.643
						c6.626,1.041,13.23,0.065,19.425-2.45c0.013-0.005,0.024-0.002,0.036-0.007c-3.638-6.347-7.737-12.43-12.043-18.343
						c-0.733-1.007-1.497-2.001-2.271-2.991c-0.153,0.367-0.462,0.66-0.994,0.703c-5.294,0.422-10.262,2.266-15.117,4.316
						C85.636,269.975,84.586,267.527,86.167,266.86z"/>
				</g>
				<g>
					<g>
						<g>
							<g>
								<path style="fill:#170C4A;" d="M34.952,298.007c11.775,4.579,23.817,7.335,34.84,13.761
									c10.593,6.176,20.879,13.186,30.519,20.759c8.883,6.979,17.394,14.386,26.315,21.331
									c10.413,8.108,17.751,17.951,26.647,27.49c1.427,1.53,3.936-0.548,2.504-2.083c-8.065-8.648-14.73-17.97-23.987-25.48
									c-9.833-7.977-19.642-16.097-29.594-23.915c-10.028-7.878-20.757-15.169-31.823-21.511
									c-10.822-6.202-22.776-8.929-34.309-13.414C34.108,294.185,32.998,297.247,34.952,298.007L34.952,298.007z"/>
							</g>
							<path style="fill:#170C4A;" d="M37.059,297.117c-2.528-1.113-6.994-0.709-9.046,1.209c-2.403,2.246-0.201,4.418,2.407,4.918
								c2.904,0.556,5.895-0.539,8.711-1.09c2.922-0.571,6.084,0.074,8.824-0.878c-1.68-1.314-4.88-2.109-6.921-2.633
								c-2.172-0.557-4.176-1.622-6.302-2.199"/>
							<path style="fill:#170C4A;" d="M42.251,299.343c-4.477-1.577-11.083-1.073-14.213-5.428
								c-2.048-2.849-1.332-5.433,2.321-5.745c2.772-0.237,5.027,1.598,6.793,3.492c2.254,2.418,4.933,5.469,6.613,8.231"/>
							<path style="fill:#170C4A;" d="M54.614,302.114c-1.627-5.182-3.517-11.767-8.526-14.885c-3.122-1.943-3.729,1.867-2.96,4.037
								c1.752,4.948,6.586,9.145,10.968,11.765L54.614,302.114z"/>
							<path style="fill:#170C4A;" d="M66.265,307.027c-0.99-6.559-2.033-14.859-7.492-19.563c-3.402-2.932-4.85,1.552-4.331,4.315
								c1.185,6.3,6.229,12.273,11.025,16.257L66.265,307.027z"/>
							<path style="fill:#170C4A;" d="M91.104,322.634c0.171-6.63,0.593-14.986-3.96-20.571c-2.838-3.48-5.047,0.682-5.017,3.492
								c0.066,6.41,3.99,13.172,8.016,17.932L91.104,322.634z"/>
							<path style="fill:#170C4A;" d="M111.055,338.271c2.279-7.502,5.385-16.891,1.951-24.685c-2.14-4.858-5.965-0.809-6.815,2.403
								c-1.938,7.326,0.408,16.264,3.5,22.953L111.055,338.271z"/>
							<path style="fill:#170C4A;" d="M82.842,316.366c-2.149-7.334-4.634-16.652-11.535-21.074
								c-4.301-2.756-5.229,2.633-4.208,5.703c2.329,7.003,8.963,12.952,15.001,16.666L82.842,316.366z"/>
							<path style="fill:#170C4A;" d="M53.624,304.844c-4.571,2.934-10.243,6.775-16.086,5.956c-3.642-0.51-1.665-3.823,0.316-4.996
								c4.517-2.674,10.918-2.796,15.959-1.996L53.624,304.844z"/>
							<path style="fill:#170C4A;" d="M80.54,314.968c-5.933,1.727-13.361,4.088-19.472,1.31c-3.809-1.732-0.583-4.708,1.956-5.349
								c5.791-1.46,12.814,0.472,18.057,2.97L80.54,314.968z"/>
							<path style="fill:#170C4A;" d="M94.112,328.041c-6.362,1.851-14.326,4.383-20.878,1.405
								c-4.084-1.857-0.625-5.048,2.098-5.735c6.209-1.566,13.739,0.506,19.36,3.184L94.112,328.041z"/>
							<path style="fill:#170C4A;" d="M108.259,338.833c-8.487,2.12-19.101,5.057-28.088,0.803
								c-5.601-2.651-1.096-6.683,2.542-7.451c8.295-1.751,18.555,1.355,26.271,5.167L108.259,338.833z"/>
							<path style="fill:#170C4A;" d="M100.633,330.502c1.456-4.067,3.654-7.613,3.809-12.034c0.135-3.84-1.54-7.336-4.009-10.188
								c-1.088-1.257-2.235-2.934-4.056-3.146c-2.556-0.298-1.484,2.435-1.003,4.101c1.021,3.546,1.859,7.217,2.487,10.838
								c0.347,2,0.733,3.863,1.242,5.763c0.336,1.254,0.329,3.751,0.87,4.596"/>
							<path style="fill:#170C4A;" d="M91.812,344.074c4.743,0.058,20.04,1.536,25.921,1.608c1.342,1.076,2.711,2.126,4.094,3.183
								c-9.591,2.324-25.405,3.846-29.582,2.85c-1.802-0.429-5.547-1.995-6.194-3.841C84.886,344.542,89.741,344.051,91.812,344.074
								z"/>
							<path style="fill:#170C4A;" d="M105.458,367.482c5.694-1.264,24.42-3.795,31.48-5.362c1.909,0.91,3.842,1.784,5.796,2.659
								c-10.827,5.478-29.329,11.745-34.609,11.727c-2.278-0.006-7.201-0.829-8.494-2.857
								C97.299,369.988,102.973,368.036,105.458,367.482z"/>
							<path style="fill:#170C4A;" d="M125.159,350.5c0.762-2.549,7.274-10.128,4.448-24.049c-0.401-1.975-1.115-4.567-3.221-5.332
								c-2.923-1.063-3.139,2.214-3.217,4.287c-0.155,4.091,0.367,19.636-0.007,23.513"/>
							<path style="fill:#170C4A;" d="M132.928,357.432c-2.87,0.824-5.735,2.61-8.71,3.566c-3.189,1.025-20.879,4.03-26.465,2.883
								c-2.424-0.498-7.152-0.319-7.753-3.406c-0.58-2.981,3.047-4.836,5.386-5.607c5.432-1.789,31.099,0.02,37.624,1.393"/>
							<path style="fill:#170C4A;" d="M135.297,358.462c6.719-9.544,9.387-29.302,7.748-31.305c-3.556-4.345-8.044,2.425-8.93,5.719
								c-1.985,7.385-0.188,24.77,1.044,25.022"/>
						</g>
					</g>
				</g>
				<g>
					<path style="fill:#3329B7;" d="M152.681,373.696c4.429,3.629,10.122,8.226,14.728,11.588c6.002,4.381,6.001,8.691,0.835,13.871
						c-6.378,6.396-17.73,9.888-26.514,11.287c-3.106,0.495-3.687,0.281-3.75-3.245c-0.046-2.604,0.299-5.019,0.065-7.645
						c-0.453-5.071-1.264-9.419-4.243-13.602c-4.698-6.596-5.119,1.6-3.771,5.397c1.57,4.421,2.617,9.199,2.657,13.988
						c0.067,8.224-26.791-4.104-30.733-8.813c3.073-2.339,6.668-11.994,4.281-15.776c-2.101-3.328-3.004,0.32-3.459,2.527
						c-0.525,2.542-0.769,4.942-2.278,7.048c-6.172,8.612-19.028-14.136-21.445-18.817c-3.18-6.159-6.847-7.061-13.25-7.32
						c4.55-5.98,11.18-14.606,19.199-14.912c3.887-0.148,7.198,2.613,10.255,4.625c2.104,1.385,9.019,4.883,5.325-0.352
						c-2.58-3.655-7.525-4.87-10.067-8.677c2.067-2.587,9.223-7.324,12.68-6.553c4.139,0.924,5.401,9.04,8.013,11.846
						c2.929-4.98-2.699-9.942-4.645-14.02c5.45-3.931,16.499-8.762,23.609-6.85c10.367,2.788,0.712,16.21-1.25,18.438
						c-1.445,1.641-3.726,4.61,0.154,3.321c3.403-1.131,7.788-8.658,9.201-11.895c0.69-1.581,0.809-6.089,2.261-7.075
						c1.656-1.125,29.226,11.146,32.334,20.268C176.102,361.825,160.728,372.494,152.681,373.696z"/>
				</g>
			</g>
		</g>
	</g>
	<g>
		<text transform="matrix(1 0 0 1 124.0671 415.8338)" style="fill:#5255EE; font-family:'Raleway-Bold'; font-size:265.1532px;">FAQ</text>
		<text transform="matrix(1 0 0 1 113.9256 415.8338)" style="fill:#FFFFFF; font-family:'Raleway-Bold'; font-size:265.1532px;">FAQ</text>
	</g>
	<g>
		<g>
			<path style="fill:#EE4921;" d="M169.653,381.253c0.068-0.086,0.136-0.172,0.199-0.26c1.173-1.651,1.355-3.823,0.45-5.659
				c-0.4-0.807-0.433-1.755-0.087-2.589l0.118-0.276c0.885-2.138-0.68-2.855-2.966-3.244c0,0-2.944-1.9-3.082-2.152l-1.424,3.518
				c0.07,0.217,2.534,0.987,2.662,1.105l2.277,9.151C168.012,381.696,169.104,381.936,169.653,381.253z"/>
			
				<linearGradient id="SVGID_1_" gradientUnits="userSpaceOnUse" x1="145.7789" y1="337.1584" x2="131.6269" y2="385.5493" gradientTransform="matrix(0.9992 -0.0411 0.0411 0.9992 -9.5122 6.7883)">
				<stop  offset="0" style="stop-color:#EE4921"/>
				<stop  offset="0.1586" style="stop-color:#F05530"/>
				<stop  offset="0.4284" style="stop-color:#F46443"/>
				<stop  offset="0.7057" style="stop-color:#F56D4E"/>
				<stop  offset="1" style="stop-color:#F67052"/>
			</linearGradient>
			<path style="fill:url(#SVGID_1_);" d="M137.619,317.542l-11.903,26.818c-1.567,3.531-1.819,6.943-0.694,9.543
				c3.029,6.999,39.573,17.308,39.573,17.308l0.079-3.834l-25.134-19.736l16.79-27.284L137.619,317.542z"/>
		</g>
		<g>
			<path style="fill:#EE4921;" d="M154.362,415.423l-0.301-0.022c-0.893-0.068-1.785,0.248-2.429,0.878
				c-1.471,1.431-5.023,1.119-6.957,0.512c-0.104-0.028-0.199-0.067-0.303-0.105c-0.817-0.308-0.932-1.423-0.189-1.89l7.417-5.021
				c0.009-0.031,0.006-0.156-0.01-0.352l4.052,0.432c0.097,0.484,0.168,0.813,0.168,0.813
				C156.145,412.958,156.667,415.605,154.362,415.423z"/>
			
				<linearGradient id="SVGID_00000125562458520885733640000008860079719225383837_" gradientUnits="userSpaceOnUse" x1="155.703" y1="340.0607" x2="141.5509" y2="388.452" gradientTransform="matrix(0.9992 -0.0411 0.0411 0.9992 -9.5122 6.7883)">
				<stop  offset="0" style="stop-color:#EE4921"/>
				<stop  offset="0.1586" style="stop-color:#F05530"/>
				<stop  offset="0.4284" style="stop-color:#F46443"/>
				<stop  offset="0.7057" style="stop-color:#F56D4E"/>
				<stop  offset="1" style="stop-color:#F67052"/>
			</linearGradient>
			<path style="fill:url(#SVGID_00000125562458520885733640000008860079719225383837_);" d="M167.048,322.877
				c-8.227,23.555-11.579,53.08-11.355,86.987l-0.052-0.009l-4.052-0.432l-0.135-0.017c-6.998-24.554-8.491-50.045-2.452-76.934
				l3.739-12.186L167.048,322.877z"/>
		</g>
		<g>
			
				<linearGradient id="SVGID_00000158001218581655127660000000466617793474185393_" gradientUnits="userSpaceOnUse" x1="149.7465" y1="317.786" x2="149.7465" y2="269.5781" gradientTransform="matrix(0.9992 -0.0411 0.0411 0.9992 -9.5122 6.7883)">
				<stop  offset="0" style="stop-color:#170C4A"/>
				<stop  offset="0.9838" style="stop-color:#5255EE"/>
			</linearGradient>
			<path style="fill:url(#SVGID_00000158001218581655127660000000466617793474185393_);" d="M136.194,320.757l30.862,2.539
				l0.03-1.267c0.089-4.037-0.575-8.023-1.694-11.898c-1.154-3.976-1.277-8.199-0.332-12.281l3.459-14.949
				c0.859-3.691-0.962-7.486-4.379-9.133l-3.97-1.92l-2.99-1.45l-0.469-0.226l-7.966,0.236l-0.372,0.128l-3.201,1.122l-4.107,1.435
				c-3.845,1.353-6.101,5.336-5.263,9.325l3.593,17.1c0.965,4.586,0.578,9.34-1.08,13.708L136.194,320.757z"/>
			<path style="fill:#EA9049;" d="M148.544,274.694c0.08,2.693,2.006,4.819,4.29,4.756c2.285-0.063,4.072-2.302,4.002-4.995
				c-0.013-0.316,0.344-4.058,0.344-4.058l-0.469-0.226l-7.966,0.236l-0.372,0.128C148.373,270.535,148.537,274.266,148.544,274.694
				z"/>
		</g>
		<g>
			<g>
				<path style="fill:#E0E7EE;" d="M155.461,307.612l-6.582,0.19c-0.426,0.012-0.761,0.367-0.748,0.793l0.294,10.151
					c0.012,0.426,0.367,0.761,0.793,0.748l6.583-0.19c0.425-0.012,0.761-0.367,0.748-0.793l-0.294-10.151
					C156.242,307.935,155.887,307.6,155.461,307.612z"/>
			</g>
		</g>
		<path style="fill:#372E62;" d="M150.449,309.852c0,0.307-0.249,0.555-0.555,0.555c-0.307,0-0.555-0.248-0.555-0.555
			c0-0.307,0.249-0.555,0.555-0.555C150.2,309.297,150.449,309.545,150.449,309.852z"/>
		<g>
			<path style="fill:#ED9659;" d="M141.361,264.871c0.517,1.954,2.014,2.536,3.414,2.882c0.533,1.026,1.229,2.034,2.03,2.917
				c0.206,0.232,0.411,0.452,0.627,0.662c1.121,1.242,2.543,2.143,4.14,2.481c0.044,0.009,0.088,0.018,0.143,0.027
				c0.088,0.018,0.177,0.047,0.275,0.065c0.066,0.008,0.131,0.005,0.186,0.003c0.055,0.009,0.11,0.017,0.164,0.015
				c0.12,0.006,0.251,0.012,0.371,0.007c0.12-0.005,0.251-0.01,0.37-0.026c0.054-0.002,0.108-0.016,0.163-0.018
				c0.065-0.014,0.13-0.016,0.184-0.029c0.098-0.015,0.183-0.051,0.281-0.077c0.044-0.002,0.087-0.014,0.141-0.028
				c1.575-0.436,2.942-1.42,3.98-2.728c0.554-0.601,1.071-1.277,1.512-1.983c0.37-0.561,0.684-1.141,0.944-1.73
				c1.368-0.438,2.836-1.099,3.234-3.079c0.307-1.562-0.17-3.605-1.471-3.672c-0.383-0.028-0.824,0.132-1.249,0.401
				c-0.641-2.582-2.085-5.316-3.83-7.165c-0.725-0.919-1.557-1.518-2.456-1.863c-0.489-0.22-0.975-0.353-1.456-0.388
				c-0.339-0.019-0.666-0.016-0.993-0.003c-0.327,0.003-0.654,0.027-0.98,0.062c-0.489,0.053-0.962,0.225-1.443,0.474
				c-0.868,0.396-1.66,1.029-2.34,1.995c-1.633,1.955-2.925,4.758-3.418,7.375c-0.436-0.244-0.878-0.379-1.268-0.33
				C141.333,261.271,140.97,263.327,141.361,264.871z"/>
			<g>
				<path style="fill:#ED9659;" d="M146.805,270.671c0.206,0.232,0.411,0.452,0.627,0.662c1.121,1.242,2.543,2.143,4.14,2.481
					c0.044,0.009,0.088,0.018,0.143,0.027c0.088,0.018,0.177,0.047,0.275,0.065c0.066,0.008,0.131,0.005,0.186,0.003
					c0.055,0.009,0.11,0.017,0.164,0.015c0.12,0.006,0.251,0.012,0.371,0.007c0.12-0.005,0.251-0.01,0.37-0.026
					c0.054-0.002,0.108-0.016,0.163-0.018c0.065-0.014,0.13-0.016,0.184-0.029c0.098-0.015,0.183-0.051,0.281-0.077
					c0.044-0.002,0.087-0.014,0.141-0.028c1.575-0.436,2.942-1.42,3.98-2.728c0.554-0.601,1.071-1.277,1.512-1.983
					c-0.365-0.64-0.945-1.216-1.658-1.569c-0.78-0.383-1.68-0.531-2.559-0.659c-1.219-0.19-2.465-0.248-3.703-0.099
					c-1.661,0.21-3.895,1.35-4.38,2.81C146.905,269.925,146.823,270.31,146.805,270.671z"/>
			</g>
			<g>
				<path style="fill:#170C4A;" d="M156.175,263.518c0.07,0.464-0.215,0.892-0.636,0.956c-0.422,0.064-0.82-0.261-0.891-0.725
					c-0.07-0.464,0.214-0.892,0.636-0.956C155.706,262.73,156.104,263.054,156.175,263.518z"/>
				<path style="fill:#170C4A;" d="M149.265,263.73c0.062,0.406-0.188,0.781-0.557,0.837c-0.369,0.056-0.719-0.228-0.78-0.634
					c-0.061-0.406,0.188-0.781,0.557-0.837C148.854,263.039,149.203,263.323,149.265,263.73z"/>
				<g>
					<g>
						<path style="fill:#170C4A;" d="M156.878,261.673c-0.097,0.02-0.203-0.017-0.265-0.104c-0.985-1.354-2.248-0.556-2.302-0.522
							c-0.122,0.079-0.284,0.044-0.364-0.077c-0.079-0.122-0.045-0.285,0.078-0.365c0.596-0.388,1.995-0.749,3.015,0.653
							c0.086,0.118,0.06,0.283-0.059,0.368C156.95,261.651,156.915,261.666,156.878,261.673z"/>
					</g>
				</g>
				<g>
					<g>
						<path style="fill:#170C4A;" d="M152.769,269.344c0.027-0.096,0.108-0.172,0.213-0.189c1.654-0.258,1.521-1.746,1.515-1.81
							c-0.015-0.145,0.09-0.273,0.235-0.289c0.145-0.015,0.274,0.091,0.289,0.236c0.073,0.707-0.245,2.117-1.958,2.384
							c-0.144,0.022-0.279-0.076-0.301-0.221C152.756,269.418,152.759,269.38,152.769,269.344z"/>
					</g>
				</g>
				<g>
					<g>
						<path style="fill:#170C4A;" d="M149.531,261.75c-0.057,0.061-0.147,0.088-0.232,0.06c-1.336-0.438-1.804,0.725-1.824,0.775
							c-0.044,0.113-0.171,0.169-0.286,0.127c-0.114-0.044-0.171-0.173-0.126-0.287c0.215-0.557,0.991-1.49,2.374-1.036
							c0.116,0.038,0.179,0.163,0.141,0.28C149.568,261.7,149.552,261.727,149.531,261.75z"/>
					</g>
				</g>
				<g>
					<path style="fill:#170C4A;" d="M151.413,268.08c-0.182,0.005-0.356-0.039-0.51-0.133c-0.489-0.299-0.631-1.011-0.379-1.906
						l0.541-2.969c0.021-0.114,0.127-0.191,0.245-0.17c0.115,0.021,0.191,0.131,0.17,0.245l-0.545,2.989
						c-0.236,0.846-0.057,1.301,0.189,1.451c0.253,0.154,0.628,0.051,0.96-0.258c0.085-0.078,0.226-0.085,0.307-0.002
						c0.079,0.083,0.088,0.204,0.007,0.286C152.074,267.913,151.73,268.07,151.413,268.08z"/>
				</g>
			</g>
		</g>
		<path style="fill:#ED9659;" d="M161.929,314.26l-1.12,0.909c-1.083,0.879-2.417,1.38-3.804,1.421l-3.534,0.102
			c-1.213,0.035-2.105-1.153-1.773-2.348c0.209-0.777,0.887-1.307,1.667-1.33c0.048-0.001,0.106-0.003,0.164,0.005l2.742,0.181
			c0,0-0.036-1.251-0.055-1.897l2.021,1.57l1.6-1.665L161.929,314.26z"/>
		
			<linearGradient id="SVGID_00000002348591763296938850000009257358704646641074_" gradientUnits="userSpaceOnUse" x1="165.0079" y1="317.7861" x2="165.0079" y2="269.5781" gradientTransform="matrix(0.9992 -0.0411 0.0411 0.9992 -9.5122 6.7883)">
			<stop  offset="0" style="stop-color:#170C4A"/>
			<stop  offset="0.9838" style="stop-color:#5255EE"/>
		</linearGradient>
		<path style="fill:url(#SVGID_00000002348591763296938850000009257358704646641074_);" d="M174.565,304.028l-12.636,10.233
			l-2.093-3.052l9.083-9.446c0.066-0.06,0.092-0.147,0.128-0.225l-1.295-3.807l-3.768-11.021l-5.004-12.777
			c-0.469-1.201,0.701-2.401,1.9-1.944c4.043,1.512,6.849,3.926,8.367,8.44l5.12,14.778l1.476,4.371l0.01,0
			C176.391,301.19,175.874,302.969,174.565,304.028z"/>
		<g>
			<g>
				<g>
					<path style="fill:#ED9659;" d="M130.296,324.255c0.166,2.927-0.263,4.26-1.133,6.672c-0.767,0.013-0.801-1.246-0.952-1.816
						c-0.023-0.109-0.113-0.315-0.146-0.433c-0.671,0.576-0.966,1.401-1.254,2.181c-0.297,0.78-0.209,2.257-0.708,2.789
						c-0.49,0.523-0.583,1.376-1.676-0.077c-1.856-2.473-0.145-6.638,2.739-8.502c-0.277-1.624-0.535-3.021-0.761-4.291l3.544,0.174
						c0.013,0.31,0.043,0.592,0.071,0.838C130.481,325.198,130.242,323.161,130.296,324.255z"/>
				</g>
			</g>
			
				<linearGradient id="SVGID_00000049209010705576156800000003531919055069908639_" gradientUnits="userSpaceOnUse" x1="133.1321" y1="317.7864" x2="133.1321" y2="269.5783" gradientTransform="matrix(0.9992 -0.0411 0.0411 0.9992 -9.5122 6.7883)">
				<stop  offset="0" style="stop-color:#170C4A"/>
				<stop  offset="0.9838" style="stop-color:#5255EE"/>
			</linearGradient>
			<path style="fill:url(#SVGID_00000049209010705576156800000003531919055069908639_);" d="M145.453,272.62
				c-0.082,2.891-0.306,5.66-0.618,8.524c-4.722,6.957-8.944,13.601-11.463,21.691c-0.014,0.11-0.07-0.143-0.047,0.194
				c-2.506,4.179-3.598,13.828-3.375,17.922l-3.544-0.174c-0.843-4.727-1.233-7.754-0.149-14.296
				c1.376-8.318,5.158-20.774,9.826-28.377c2.45-3.975,4.631-5.171,8.764-5.542C145.257,272.528,145.107,272.643,145.453,272.62z"/>
		</g>
		<g>
			<path style="fill:#EE4921;" d="M161.842,256.203c-0.273-1.445-0.691-3.356-1.618-4.542c-0.984-1.259-3.184-2.414-4.759-2.673
				c-0.997-0.164-2.009-0.086-3.025-0.131c-1.97-0.089-3.814-0.623-5.723-0.871c-0.331,0.663,0.474,1.589,0.963,1.95
				c-1.648,0.85-3.995,0.413-5.966-0.106c1.021,3.245,3.12,3.298,3.739,4.003c-1.502,0.944-4.241,0.605-6.269-1.176
				c0.995,7.971,3.774,7.181,4.369,8.739c-0.19,1.355,0.481,3.598,1.404,4.325c0.784-0.824,0.761-3.05,0.991-4.151
				c0.247-1.183,0.691-2.224,1.08-3.35c-0.18,0.973,1.805,1.424,2.503,1.467c0.94,0.057,1.928,0.003,2.829-0.214
				c-0.815-0.791-0.845-1.287-0.885-2.396c0.882,1.373,4.303,3.029,5.908,2.415c-0.419-0.593-0.784-1.146-0.896-1.873
				c1.116,1.041,3.018,1.731,3.649,3.152c0.688,1.547,0.718,3.278,0.695,4.943c0.467-1.399,0.514-3.011,0.861-4.479
				C162.085,259.566,162.162,257.902,161.842,256.203z"/>
		</g>
	</g>
	<g>
		<g>
			<g>
				<path style="fill:#EE4921;" d="M216.162,149.082c-0.188-1.775-0.423-3.875-2.006-4.559c-3.517-1.52-8.79,10.351-8.708,12.686
					c0.051,1.464,0.397,2.097,1.204,3.165c0.829,1.096,1.181,1.26,0.287,2.316c-1.919,2.267-6.543,6.503-3.208,9.708
					c-1.078,1.212-2.921,1.674-4.158,2.818c-1.115,1.032-2.547,3.138-2.682,4.92c1.337-0.272,2.7-1.335,4.077-1.714
					c1.636-0.45,3.372-0.654,5.051-0.988c2.567-0.511,7.777-0.999,9.226-4.125c0.75-1.619,0.647-4.434,0.74-6.295
					c0.178-3.599,0.777-7.162,0.712-10.786C216.654,153.855,216.409,151.413,216.162,149.082z"/>
			</g>
			<g>
				<path style="fill:#EE4921;" d="M218.617,149.082c0.188-1.775,0.423-3.875,2.006-4.559c3.517-1.52,8.79,10.351,8.708,12.686
					c-0.051,1.464-0.397,2.097-1.204,3.165c-0.829,1.096-1.181,1.26-0.287,2.316c1.919,2.267,6.543,6.503,3.208,9.708
					c1.078,1.212,2.921,1.674,4.158,2.818c1.115,1.032,2.547,3.138,2.682,4.92c-1.337-0.272-2.7-1.335-4.077-1.714
					c-1.636-0.45-3.372-0.654-5.051-0.988c-2.567-0.511-7.777-0.999-9.226-4.125c-0.75-1.619-0.647-4.434-0.74-6.295
					c-0.178-3.599-0.777-7.162-0.712-10.786C218.126,153.855,218.37,151.413,218.617,149.082z"/>
			</g>
			
				<linearGradient id="SVGID_00000014605373741179710280000018326607414440981647_" gradientUnits="userSpaceOnUse" x1="235.6818" y1="202.2677" x2="235.6818" y2="158.9544">
				<stop  offset="0" style="stop-color:#EE4921"/>
				<stop  offset="0.1586" style="stop-color:#F05530"/>
				<stop  offset="0.4284" style="stop-color:#F46443"/>
				<stop  offset="0.7057" style="stop-color:#F56D4E"/>
				<stop  offset="1" style="stop-color:#F67052"/>
			</linearGradient>
			<path style="fill:url(#SVGID_00000014605373741179710280000018326607414440981647_);" d="M224.302,170.989
				c0,0,5.817-1.925,10.722,5.797c2.319,3.651,4.779,7.211,7.56,10.523l3.588,4.273c1.817,2.164,0.71,5.483-2.042,6.123l0,0
				l-17.438-13.751L224.302,170.989z"/>
			
				<linearGradient id="SVGID_00000069366444484430512840000004176667835211803549_" gradientUnits="userSpaceOnUse" x1="199.3867" y1="202.2677" x2="199.3867" y2="158.9544">
				<stop  offset="0" style="stop-color:#EE4921"/>
				<stop  offset="0.1586" style="stop-color:#F05530"/>
				<stop  offset="0.4284" style="stop-color:#F46443"/>
				<stop  offset="0.7057" style="stop-color:#F56D4E"/>
				<stop  offset="1" style="stop-color:#F67052"/>
			</linearGradient>
			<path style="fill:url(#SVGID_00000069366444484430512840000004176667835211803549_);" d="M210.766,171.278
				c0,0-5.817-1.925-10.722,5.797c-2.319,3.65-4.779,7.21-7.56,10.522l-3.588,4.273c-1.817,2.164-0.71,5.483,2.042,6.123l0,0
				l17.438-13.751L210.766,171.278z"/>
			
				<linearGradient id="SVGID_00000127007813520406859960000004327381010842241670_" gradientUnits="userSpaceOnUse" x1="192.6067" y1="218.7874" x2="241.1007" y2="218.7874">
				<stop  offset="0" style="stop-color:#170C4A"/>
				<stop  offset="0.9838" style="stop-color:#5255EE"/>
			</linearGradient>
			<polygon style="fill:url(#SVGID_00000127007813520406859960000004327381010842241670_);" points="201.891,212.184 
				192.607,212.184 207.5,225.178 221.848,226.215 241.101,211.704 230.085,211.36 			"/>
			<path style="fill:#EA9049;" d="M222.429,170.454l4.079,8.649c-1.018,2.614-16.963,3.633-18.156,1.092l3.137-9.389l0.989-0.117
				c1.26-0.286,1.853-0.769,2.131-2.028c0-0.007,0-0.007,0-0.007c0.168-1.201,0.058-2.153-0.33-2.871l5.551-1.325l0.205,2.255
				c0.073,0.805,0.117,1.626,0.146,2.431c0,0.007,0,0.007,0,0.007c0.007,0.593,0.447,1.084,1.033,1.142L222.429,170.454z"/>
			<g>
				<g>
					
						<linearGradient id="SVGID_00000170275749746205231240000014731660556441343882_" gradientUnits="userSpaceOnUse" x1="229.1099" y1="208.9546" x2="228.8703" y2="235.3018">
						<stop  offset="0" style="stop-color:#170C4A"/>
						<stop  offset="0.9838" style="stop-color:#5255EE"/>
					</linearGradient>
					<path style="fill:url(#SVGID_00000170275749746205231240000014731660556441343882_);" d="M247.44,219.735
						c-0.591,2.589-2.625,4.462-5.053,4.981c-0.224,0.045-0.439,0.081-0.654,0.098c-8.395,2.311-17.622,3.942-27.558,5.026
						l-3.79-5.008c10.813-3.557,20.462-7.319,27.826-12.498c1.29-0.609,2.777-0.815,4.265-0.475
						C246.024,212.667,248.246,216.197,247.44,219.735z"/>
					<path style="fill:#EE4921;" d="M214.175,229.841c-2.777,0.305-5.608,0.555-8.493,0.779l-4.874,4.533
						c-0.045,0.036-0.09,0.081-0.143,0.117c-2.195,1.729-5.366-0.269-4.883-3.019l0.287-1.631c0-0.009,0.009-0.027,0.009-0.027
						c0.573-1.604,2.007-2.732,3.673-3.037l5.062-0.923c1.89-0.6,3.745-1.192,5.573-1.801L214.175,229.841z"/>
				</g>
				<g>
					
						<linearGradient id="SVGID_00000105408402940479486050000008354637052203233929_" gradientUnits="userSpaceOnUse" x1="202.9698" y1="208.7484" x2="202.7323" y2="234.8669">
						<stop  offset="0" style="stop-color:#170C4A"/>
						<stop  offset="0.9838" style="stop-color:#5255EE"/>
					</linearGradient>
					<path style="fill:url(#SVGID_00000105408402940479486050000008354637052203233929_);" d="M220.59,223.91
						c-0.779,1.532-1.828,3.664-2.625,5.277c-10.419-1.236-19.907-2.706-26.957-4.793c-0.224-0.027-0.439-0.063-0.654-0.107
						c-2.428-0.511-4.462-2.392-5.062-4.972c-0.797-3.548,1.424-7.077,4.972-7.884c1.487-0.331,2.974-0.125,4.264,0.475
						C201.991,216.734,210.833,220.64,220.59,223.91z"/>
					<path style="fill:#EE4921;" d="M231.708,234.858c-0.054-0.036-0.098-0.081-0.143-0.117l-4.954-4.605
						c-2.93-0.314-5.823-0.627-8.645-0.95c0.797-1.613,1.846-3.745,2.625-5.277c2.508,0.851,5.08,1.658,7.714,2.419l-0.009,0.027
						l4.318,0.788c1.675,0.305,3.1,1.442,3.682,3.037c0,0.009,0,0.018,0.009,0.027l0.287,1.63
						C237.065,234.589,233.894,236.587,231.708,234.858z"/>
				</g>
			</g>
			
				<linearGradient id="SVGID_00000133524887693704405240000017940360454585482658_" gradientUnits="userSpaceOnUse" x1="215.9883" y1="202.2677" x2="215.9883" y2="158.9544">
				<stop  offset="0" style="stop-color:#EE4921"/>
				<stop  offset="0.1586" style="stop-color:#F05530"/>
				<stop  offset="0.4284" style="stop-color:#F46443"/>
				<stop  offset="0.7057" style="stop-color:#F56D4E"/>
				<stop  offset="1" style="stop-color:#F67052"/>
			</linearGradient>
			<path style="fill:url(#SVGID_00000133524887693704405240000017940360454585482658_);" d="M230.081,211.359
				c-7.931,8.707-17.443,8.312-28.186,0.827l6.993-11.306c0.527-1.223,0.769-2.534,0.688-3.859c-0.051-0.93-0.263-1.853-0.622-2.746
				l-0.278-0.666l-1.831-4.386c-0.586-1.421-0.879-2.936-0.879-4.452c0-1.282,0.212-2.563,0.637-3.8
				c0.652-1.882,0.893-3.881,0.703-5.858l-0.381-3.793c1.189-0.376,2.811-0.484,4.562-0.512l-2.592,7.632
				c1.194,2.541,15.761,2.614,16.779,0l-3.246-7.984c1.47-0.106,2.82-0.033,3.981,0.322c1.186,1.889,0.53,6.613,2.082,9.761
				c1.589,3.222,0.483,7.455-1.201,10.757l-1.758,3.427l-1.45,2.834c-0.205,0.564-0.278,1.252-0.278,1.977
				c0,0.344,0.007,0.688,0.037,1.033c0.051,0.608,0.242,1.193,0.571,1.714L230.081,211.359z"/>
			<path style="fill:#ED9659;" d="M227.054,154.225c-0.375-0.033-0.801,0.106-1.219,0.354c-0.551-2.522-1.879-5.206-3.515-7.051
				c-0.687-0.917-1.476-1.514-2.335-1.873c-0.465-0.226-0.935-0.379-1.405-0.42c-0.323-0.028-0.642-0.039-0.957-0.035
				c-0.315-0.004-0.634,0.007-0.957,0.035c-0.47,0.041-0.941,0.194-1.405,0.42c-0.859,0.359-1.648,0.956-2.334,1.873
				c-1.636,1.846-2.964,4.53-3.515,7.051c-0.418-0.248-0.844-0.386-1.219-0.354c-1.256,0.109-1.666,2.099-1.32,3.607
				c0.438,1.912,1.882,2.512,3.221,2.893c0.613,1.265,1.481,2.505,2.483,3.541c1.048,1.235,2.401,2.151,3.943,2.525
				c0.045,0.012,0.091,0.022,0.136,0.032c0.09,0.02,0.177,0.047,0.268,0.063c0.061,0.011,0.124,0.01,0.185,0.018
				c0.052,0.007,0.104,0.01,0.156,0.015c0.119,0.01,0.239,0.018,0.359,0.017c0.12,0.001,0.24-0.007,0.359-0.017
				c0.052-0.005,0.103-0.008,0.155-0.015c0.062-0.008,0.124-0.007,0.185-0.018c0.091-0.016,0.178-0.044,0.268-0.063
				c0.045-0.01,0.091-0.021,0.136-0.032c1.543-0.374,2.896-1.291,3.944-2.526c1.001-1.036,1.869-2.275,2.482-3.54
				c1.339-0.381,2.783-0.98,3.221-2.893C228.72,156.324,228.309,154.334,227.054,154.225z"/>
			<path style="fill:#ED9659;" d="M216.525,211.271c0,0-3.085-5.275-3.662-5.823l-0.66-0.624c-0.732-0.686-1.782-0.914-2.73-0.583
				l-3.491,1.209c-0.546,0.195-1.157,0.033-1.536-0.407l-0.123-0.142l-1.752-2.016c0,0-8.441-13.96-13.066-11.59
				c-2.458,1.893-2.311,5.643,0.272,7.345l9.911,6.523l2.662,1.754l1.752,1.157c0.358,0.229,0.774,0.362,1.197,0.375l4.376,0.116
				C208.985,210.108,215.238,213.336,216.525,211.271z"/>
			<path style="fill:#ED9659;" d="M218.284,210.601c0,0,3.085-5.275,3.662-5.823l0.66-0.624c0.732-0.686,1.782-0.914,2.73-0.583
				l3.492,1.209c0.546,0.195,1.157,0.033,1.536-0.407l0.123-0.142l1.752-2.016c0,0,8.441-13.96,13.065-11.59
				c2.458,1.893,2.311,5.643-0.272,7.345l-9.911,6.523l-2.662,1.754l-1.752,1.157c-0.358,0.229-0.774,0.362-1.197,0.374
				l-4.376,0.116C225.824,209.438,219.571,212.666,218.284,210.601z"/>
			<g>
				<g>
					<path style="fill:#170C4A;" d="M218.483,163.034c0.93-0.29,1.943-0.97,2.372-2.512c0.035-0.127-0.039-0.258-0.166-0.294
						c-0.125-0.035-0.258,0.038-0.294,0.166c-0.767,2.754-3.6,2.363-3.722,2.346c-0.13-0.02-0.251,0.071-0.271,0.201
						c-0.02,0.13,0.07,0.251,0.2,0.271C216.619,163.215,217.505,163.339,218.483,163.034z"/>
				</g>
				<g>
					<path style="fill:#170C4A;" d="M221.563,157.294c-0.03,0.448-0.416,0.787-0.861,0.757c-0.445-0.03-0.782-0.418-0.751-0.866
						c0.03-0.448,0.416-0.787,0.861-0.756C221.257,156.458,221.593,156.846,221.563,157.294z"/>
				</g>
				<g>
					<path style="fill:#170C4A;" d="M215.008,157.294c-0.03,0.448-0.416,0.787-0.861,0.757c-0.445-0.03-0.782-0.418-0.751-0.866
						c0.03-0.448,0.416-0.787,0.862-0.756C214.702,156.458,215.039,156.846,215.008,157.294z"/>
				</g>
				<g>
					<path style="fill:#170C4A;" d="M222.55,155.255c0.008-0.003,0.016-0.006,0.024-0.009c0.121-0.052,0.176-0.193,0.124-0.314
						c-0.629-1.441-1.932-1.39-2.538-1.168c-0.123,0.046-0.185,0.183-0.139,0.306c0.045,0.124,0.169,0.189,0.306,0.141
						c0.042-0.016,1.33-0.471,1.933,0.911C222.309,155.235,222.434,155.291,222.55,155.255z"/>
				</g>
				<g>
					<path style="fill:#170C4A;" d="M215.353,154.331c0.005-0.007,0.009-0.015,0.013-0.022c0.06-0.117,0.014-0.261-0.104-0.321
						c-1.401-0.715-2.375,0.152-2.703,0.708c-0.066,0.114-0.027,0.259,0.087,0.325c0.114,0.067,0.251,0.039,0.326-0.085
						c0.022-0.039,0.729-1.208,2.072-0.523C215.154,154.468,215.287,154.432,215.353,154.331z"/>
				</g>
				<g>
					<path style="fill:#170C4A;" d="M216.809,160.628c0.128,0,0.23-0.103,0.231-0.23c0-0.128-0.102-0.231-0.23-0.233
						c-0.005,0-0.446-0.011-0.559-0.249c-0.052-0.11-0.103-0.451,0.539-1.251c0.08-0.099,0.063-0.245-0.036-0.325
						c-0.099-0.079-0.245-0.063-0.325,0.036c-0.601,0.75-0.796,1.319-0.595,1.74C216.076,160.62,216.778,160.628,216.809,160.628
						L216.809,160.628z"/>
				</g>
			</g>
			<g>
				
					<linearGradient id="SVGID_00000130640236420367044360000008368010908392912306_" gradientUnits="userSpaceOnUse" x1="216.9525" y1="205.3058" x2="216.9525" y2="192.935">
					<stop  offset="0" style="stop-color:#CCCCCC"/>
					<stop  offset="1" style="stop-color:#FFFFFF"/>
				</linearGradient>
				<path style="fill:url(#SVGID_00000130640236420367044360000008368010908392912306_);" d="M232.605,197.035h-31.306
					c-1.008,0-1.78,0.895-1.631,1.892l2.412,16.227c-0.597,0.146-1.045,0.684-1.045,1.324v0c0,0.752,0.615,1.367,1.367,1.367h28.904
					c0.752,0,1.367-0.615,1.367-1.367v0c0-0.733-0.586-1.331-1.312-1.361l2.868-16.144
					C234.409,197.963,233.632,197.035,232.605,197.035z"/>
				<path style="fill:#FFFFFF;" d="M218.921,205.919c0.77,0.77,0.77,2.018,0,2.788c-0.77,0.77-2.018,0.77-2.788,0
					c-0.77-0.77-0.77-2.018,0-2.788C216.903,205.15,218.152,205.15,218.921,205.919z"/>
			</g>
			<g>
				<path style="fill:#EE4921;" d="M225.363,146.896c-1.848-2.607-4.942-4.092-8.028-3.934c-2.356,0.12-5.985,1.666-7.388,3.774
					c-3.589,5.391-0.536,7.844-0.536,7.844c1.691,1.485,4.727-2.392,4.639-3.983c1.625,0.547,2.951-0.394,3.286-2.034
					c-0.132,1.568,1.755,3.535,3.296,2.435c0.69,2.243,4.12,5.872,6.133,3.235C228.012,152.596,226.727,148.82,225.363,146.896z"/>
			</g>
		</g>
	</g>
	<g>
		<path style="fill:#ED9659;" d="M375.765,420.884l-0.864,2.322h-12.76c0,0-1.561-4.09,9.199-4.09L375.765,420.884z"/>
		
			<linearGradient id="SVGID_00000127727085599655936640000014801015270675108282_" gradientUnits="userSpaceOnUse" x1="379.1698" y1="410.4126" x2="374.1247" y2="366.8284">
			<stop  offset="0" style="stop-color:#EE4921"/>
			<stop  offset="0.1586" style="stop-color:#F05530"/>
			<stop  offset="0.4284" style="stop-color:#F46443"/>
			<stop  offset="0.7057" style="stop-color:#F56D4E"/>
			<stop  offset="1" style="stop-color:#F67052"/>
		</linearGradient>
		<path style="fill:url(#SVGID_00000127727085599655936640000014801015270675108282_);" d="M385.27,386.761l-9.285,33.542
			l-0.219,0.581l-4.425-1.768c2.026-14.23,5.548-35.569,9.044-39.001L385.27,386.761z"/>
		<path style="fill:#EE4921;" d="M461.168,425.793c1.267-0.505,2.032-1.59,2.231-2.748c0.235-1.369-0.294-2.846-1.64-3.703
			l-1.152-0.728c-0.597-0.38-1.299-0.573-2.011-0.563l-9.489,0.188l-0.808,4.704l10.537,2.967
			C459.605,426.127,460.431,426.089,461.168,425.793z"/>
		
			<linearGradient id="SVGID_00000001657819351452410270000016319686687767155132_" gradientUnits="userSpaceOnUse" x1="414.7742" y1="404.9197" x2="455.5745" y2="404.9197">
			<stop  offset="0" style="stop-color:#170C4A"/>
			<stop  offset="0.9838" style="stop-color:#5255EE"/>
		</linearGradient>
		<path style="fill:url(#SVGID_00000001657819351452410270000016319686687767155132_);" d="M419.267,408.588
			c0,0,10.84-21.379,10.938-21.088c0.099,0.291,8.552,31.476,8.552,31.476s-27.976,9.201-40.8-2.82L419.267,408.588z"/>
		
			<linearGradient id="SVGID_00000044876010122325172330000018399586768459764923_" gradientUnits="userSpaceOnUse" x1="401.3874" y1="407.8408" x2="396.3423" y2="364.2567">
			<stop  offset="0" style="stop-color:#EE4921"/>
			<stop  offset="0.1586" style="stop-color:#F05530"/>
			<stop  offset="0.4284" style="stop-color:#F46443"/>
			<stop  offset="0.7057" style="stop-color:#F56D4E"/>
			<stop  offset="1" style="stop-color:#F67052"/>
		</linearGradient>
		<path style="fill:url(#SVGID_00000044876010122325172330000018399586768459764923_);" d="M409.027,372.872
			c-14.815-3.471-21.585-0.343-28.642,7.239c3.717,17.229,9.054,29.222,19.304,36.045l19.579-7.569L409.027,372.872z"/>
		<path style="fill:#EA9049;" d="M392.458,374.87c0,2.896,1.989,5.241,4.447,5.241c2.458,0,4.452-2.345,4.452-5.241
			c0-0.461-0.052-0.907-0.146-1.335l-2.092-0.663h-4.612l-1.974,1.025C392.486,374.212,392.458,374.536,392.458,374.87z"/>
		<g>
			<path style="fill:#ED9659;" d="M386.799,362.967c0.399-0.034,0.853,0.113,1.297,0.376c0.587-2.683,1.999-5.539,3.74-7.502
				c0.731-0.975,1.57-1.611,2.484-1.993c0.494-0.241,0.995-0.403,1.495-0.447c0.344-0.03,0.683-0.042,1.018-0.037
				c0.335-0.005,0.675,0.007,1.018,0.037c0.5,0.043,1.001,0.206,1.495,0.447c0.914,0.382,1.753,1.017,2.484,1.992
				c1.741,1.964,3.153,4.819,3.74,7.502c0.445-0.264,0.898-0.411,1.297-0.376c1.336,0.116,1.772,2.233,1.405,3.838
				c-0.466,2.035-2.002,2.672-3.427,3.078c-0.653,1.346-1.576,2.665-2.642,3.767c-1.115,1.314-2.554,2.289-4.196,2.687
				c-0.049,0.012-0.097,0.023-0.145,0.034c-0.095,0.021-0.188,0.05-0.285,0.067c-0.065,0.012-0.131,0.011-0.197,0.019
				c-0.055,0.007-0.11,0.011-0.165,0.016c-0.127,0.011-0.254,0.019-0.382,0.018c-0.128,0.001-0.255-0.007-0.382-0.018
				c-0.055-0.005-0.11-0.009-0.165-0.016c-0.066-0.008-0.132-0.008-0.197-0.019c-0.097-0.017-0.189-0.046-0.285-0.067
				c-0.048-0.011-0.097-0.022-0.145-0.034c-1.642-0.398-3.082-1.373-4.197-2.688c-1.065-1.103-1.988-2.421-2.64-3.766
				c-1.425-0.405-2.961-1.043-3.427-3.078C385.027,365.2,385.463,363.083,386.799,362.967z"/>
			<g>
				<path style="fill:#170C4A;" d="M393.456,365.848c-0.059,0.481,0.248,0.914,0.685,0.967c0.437,0.053,0.839-0.293,0.898-0.774
					c0.059-0.481-0.248-0.914-0.685-0.967C393.917,365.02,393.515,365.367,393.456,365.848z"/>
				<path style="fill:#170C4A;" d="M399.989,365.848c-0.059,0.481,0.248,0.914,0.685,0.967c0.437,0.053,0.839-0.293,0.898-0.774
					c0.059-0.481-0.248-0.914-0.685-0.968C400.449,365.02,400.047,365.367,399.989,365.848z"/>
				<g>
					<g>
						<path style="fill:#170C4A;" d="M392.646,364.724c0.101,0.017,0.209-0.024,0.271-0.115c0.976-1.427,2.303-0.642,2.36-0.608
							c0.128,0.078,0.294,0.037,0.374-0.09c0.078-0.128,0.037-0.296-0.092-0.374c-0.626-0.382-2.081-0.713-3.092,0.764
							c-0.085,0.124-0.053,0.294,0.072,0.378C392.572,364.703,392.608,364.717,392.646,364.724z"/>
					</g>
				</g>
				<g>
					<g>
						<path style="fill:#170C4A;" d="M396.638,371.759c-0.031-0.098-0.117-0.175-0.226-0.189c-1.715-0.217-1.622-1.757-1.618-1.822
							c0.011-0.149-0.101-0.279-0.251-0.291c-0.15-0.011-0.28,0.102-0.291,0.252c-0.055,0.732,0.315,2.177,2.092,2.402
							c0.149,0.019,0.285-0.087,0.304-0.237C396.654,371.834,396.65,371.796,396.638,371.759z"/>
					</g>
				</g>
				<g>
					<g>
						<path style="fill:#170C4A;" d="M399.64,363.712c0.06,0.062,0.154,0.086,0.241,0.055c1.366-0.492,1.883,0.695,1.906,0.746
							c0.049,0.116,0.182,0.17,0.299,0.122c0.116-0.049,0.171-0.183,0.121-0.3c-0.239-0.569-1.067-1.508-2.481-0.999
							c-0.118,0.043-0.18,0.174-0.137,0.293C399.6,363.661,399.618,363.689,399.64,363.712z"/>
					</g>
				</g>
				<g>
					<path style="fill:#170C4A;" d="M398,370.414c0.188,0,0.366-0.051,0.522-0.152c0.496-0.323,0.621-1.063,0.335-1.978
						l-0.647-3.048c-0.025-0.118-0.136-0.193-0.258-0.168c-0.118,0.025-0.193,0.141-0.168,0.258l0.652,3.068
						c0.269,0.866,0.097,1.341-0.152,1.503c-0.256,0.167-0.646,0.071-0.999-0.237c-0.09-0.078-0.236-0.081-0.317,0.008
						c-0.079,0.088-0.085,0.214,0.002,0.296C397.313,370.261,397.673,370.414,398,370.414z"/>
				</g>
			</g>
		</g>
		<path style="fill:#EE4921;" d="M448.935,442.716c-0.416,1.182-1.441,1.985-2.575,2.294c-1.34,0.365-2.837,0.063-3.776-1.034
			l-0.797-0.939c-0.416-0.487-0.653-1.088-0.69-1.721l-0.441-8.443l4.605-1.254l3.635,9.013
			C449.162,441.291,449.178,442.029,448.935,442.716z"/>
		
			<linearGradient id="SVGID_00000180355687064772958630000015890865528051651714_" gradientUnits="userSpaceOnUse" x1="452.9227" y1="423.9786" x2="385.6548" y2="413.8884">
			<stop  offset="0" style="stop-color:#170C4A"/>
			<stop  offset="0.9838" style="stop-color:#5255EE"/>
		</linearGradient>
		<path style="fill:url(#SVGID_00000180355687064772958630000015890865528051651714_);" d="M438.471,422.929l9.023-0.208
			l0.805,0.223l0.808-4.704l-0.845,0.011l-46.09-7.921c-0.222-0.038-0.435-0.063-0.651-0.064c-0.539-0.02-1.6-0.01-2.773,0.222
			c-3.978,0.786-5.199,5.72-2.109,8.347c2.144,1.826,4.911,3.037,8.137,3.82l0.012,0.002
			C413.831,424.85,426.411,423.639,438.471,422.929z"/>
		
			<linearGradient id="SVGID_00000024715352024372377780000012722216091797468083_" gradientUnits="userSpaceOnUse" x1="444.6998" y1="445.014" x2="434.6787" y2="383.551">
			<stop  offset="0" style="stop-color:#170C4A"/>
			<stop  offset="0.9838" style="stop-color:#5255EE"/>
		</linearGradient>
		<path style="fill:url(#SVGID_00000024715352024372377780000012722216091797468083_);" d="M444.598,422.9l0.39,8.031l0.274,0.689
			l-4.605,1.254l-0.045-0.751l-10.891-40.001c-0.052-0.193-0.091-0.379-0.106-0.571c-0.056-0.476-0.116-1.419,0.037-2.486
			c0.516-3.62,5.321-5.267,8.128-2.824c1.95,1.694,3.332,4.012,4.321,6.786l0.003,0.01
			C444.872,400.813,444.504,412.115,444.598,422.9z"/>
		<g>
			<g>
				<path style="fill:#170C4A;" d="M411.231,392.442l-3.321,3.827c-0.285,0.329-0.251,0.826,0.077,1.112l6.79,5.935
					c0.341,0.298,0.862,0.249,1.141-0.107l2.905-3.703c0.251-0.32,0.218-0.779-0.077-1.06l-6.375-6.059
					C412.045,392.077,411.526,392.102,411.231,392.442z"/>
				<path style="fill:#FFFFFF;" d="M409.472,396.939c0,0.347,0.281,0.628,0.628,0.628c0.347,0,0.628-0.281,0.628-0.628
					c0-0.347-0.281-0.628-0.628-0.628C409.753,396.311,409.472,396.592,409.472,396.939z"/>
			</g>
			
				<linearGradient id="SVGID_00000106869160018765232900000002256852192207907724_" gradientUnits="userSpaceOnUse" x1="422.4409" y1="405.4037" x2="417.3958" y2="361.8196">
				<stop  offset="0" style="stop-color:#EE4921"/>
				<stop  offset="0.1586" style="stop-color:#F05530"/>
				<stop  offset="0.4284" style="stop-color:#F46443"/>
				<stop  offset="0.7057" style="stop-color:#F56D4E"/>
				<stop  offset="1" style="stop-color:#F67052"/>
			</linearGradient>
			<path style="fill:url(#SVGID_00000106869160018765232900000002256852192207907724_);" d="M431.739,383.839
				c-1.059,3.628-4.024,11.589-10.765,16.812l-1.841-5.971l4.195-6.346l-12.617-5.019c-2.654-1.059-3.992-4.024-3.028-6.71
				l1.348-3.735l21.477,8.229C431.536,381.581,432.06,382.747,431.739,383.839z"/>
		</g>
		<path style="fill:#ED9659;" d="M420.973,400.65c-1.627,1.263-3.467,2.365-5.565,3.21c-1.316,0.535-2.814,0.075-3.617-1.092
			c-0.289-0.428-0.578-0.931-0.835-1.53l-2.558,0.428c0,0-2.386-0.503,6.014-4.259l1.348-1.049l-2.247-3.21
			c0,0,0.664-1.124,5.158,2.226l0.46-0.696L420.973,400.65z"/>
		<g>
			<g>
				<path style="fill:#170C4A;" d="M388.167,363.476c-0.003-0.012-0.011-0.021-0.014-0.033c-0.005-0.006-0.009-0.012-0.014-0.019
					L388.167,363.476z"/>
			</g>
			<g>
				<path style="fill:#3329B7;" d="M405.76,358.178c-1.065-1.294-1.966-2.686-2.701-4.193c-0.748-1.533-2.554-2.312-4.194-2.457
					c-1.853-0.164-3.684,0.289-5.374,1.016c-1.995,0.858-3.569,2.689-4.989,4.287c-1.504,1.692-2.732,4.399-1.071,6.332
					c0.142,0.165,1.513,1.563,1.569,1.711c0.069,0.179-0.295,0.864-0.322,1.126c-0.031,0.311-0.02,0.669,0.001,0.98
					c0.055,0.838,0.49,1.773,1.472,1.337c0.857-0.38,0.827-1.368,0.864-2.153c0.043-0.913,0.015-2.091-0.467-2.912
					c4.064-1.131,5.235-4.616,5.546-5.101c0.266,0.778,1.288,1.576,1.941,2.055c0.68,0.499,1.296,1.07,2.042,1.471
					c0.68,0.366,1.411,0.73,2.148,0.983c0.333,0.114,0.734,0.025,0.891,0.349c0.099,0.203-0.002,0.697-0.002,0.935
					c0,0.833,0.081,1.539,0.467,2.291c0.162,0.316,0.342,0.807,0.749,0.704c0.365-0.093,0.641-0.8,0.736-1.119
					c0.19-0.637,0.306-1.292,0.524-1.923c0.226-0.653,0.477-1.134,0.808-1.728C407.092,360.923,406.595,359.192,405.76,358.178z"/>
			</g>
		</g>
	</g>
	<g>
		<g>
			<path style="fill:#3329B7;" d="M578.667,307.1c-0.097-1.16-0.212-2.319-0.367-3.478c-0.43-3.225-1.015-6.388-1.745-9.446
				c-0.701-2.935-1.485-5.79-2.606-8.283c-1.175-2.616-2.262-5.362-3.251-8.199c-0.912-2.616-1.735-5.324-2.452-8.117
				c-5.778,0.241-11.555,0.482-17.333,0.724c-1.28,6.074-3.594,11.316-6.014,16.241c-2.419,4.925-4.995,9.678-6.938,15.199
				c-1.944,5.521-3.234,11.998-2.778,18.416c1.008-6.144,3.728-11.373,7.152-13.746c-1.19,4.232-0.575,9.493,0.975,13.359
				c1.55,3.866,3.898,6.549,6.308,8.723c2.596,2.341,5.335,4.205,8.157,5.552c1.163,0.555,2.379,1.026,3.568,0.675
				c1.063-0.313,2.027-1.261,2.917-2.314c5.302-6.269,8.734-17.036,8.972-28.145c0.981,1.607,2.27,2.495,3.427,3.699
				c1.157,1.205,2.267,2.964,2.455,5.279C578.949,311.18,578.836,309.137,578.667,307.1z"/>
		</g>
		<g>
			<g>
				
					<linearGradient id="SVGID_00000157300237211525698040000015410736912222263218_" gradientUnits="userSpaceOnUse" x1="577.3262" y1="322.7304" x2="577.3262" y2="294.4281">
					<stop  offset="0" style="stop-color:#EE4921"/>
					<stop  offset="0.1586" style="stop-color:#F05530"/>
					<stop  offset="0.4284" style="stop-color:#F46443"/>
					<stop  offset="0.7057" style="stop-color:#F56D4E"/>
					<stop  offset="1" style="stop-color:#F67052"/>
				</linearGradient>
				<path style="fill:url(#SVGID_00000157300237211525698040000015410736912222263218_);" d="M590.27,313.905l-3.813-4.538
					c-0.168-0.195-0.336-0.398-0.495-0.602c-2.76-3.353-5.22-6.936-7.546-10.599c-1.464-2.305-3.601-4.279-6.111-5.469
					c-2.828-1.341-5.868-1.149-8.869-1.492c0,0,0.213,0.429,0.386,1.036c0.311,1.09,1.32,1.596,2.117,2.286
					c2.502,2.165,2.721,5.859,3.127,8.916c0.24,1.809,0.855,2.674,2.258,3.748c1.172,0.897,2.318,1.828,3.476,2.741
					c1.612,1.272,3.225,2.543,4.837,3.814l8.466,6.671C591.022,319.736,592.207,316.206,590.27,313.905z"/>
				
					<linearGradient id="SVGID_00000132046846713799666460000007909840756633797301_" gradientUnits="userSpaceOnUse" x1="541.9189" y1="322.7304" x2="541.9189" y2="294.4281">
					<stop  offset="0" style="stop-color:#EE4921"/>
					<stop  offset="0.1586" style="stop-color:#F05530"/>
					<stop  offset="0.4284" style="stop-color:#F46443"/>
					<stop  offset="0.7057" style="stop-color:#F56D4E"/>
					<stop  offset="1" style="stop-color:#F67052"/>
				</linearGradient>
				<path style="fill:url(#SVGID_00000132046846713799666460000007909840756633797301_);" d="M553.382,291.854
					c-5.379,0.1-9.719,1.626-12.699,6.313c-2.362,3.716-4.848,7.334-7.661,10.731c-0.124,0.159-0.248,0.31-0.38,0.469l-3.813,4.538
					c-1.938,2.3-0.752,5.83,2.167,6.511l7.776-6.131l10.775-8.493c0.181-0.983,0.362-1.965,0.543-2.948
					c0.323-1.754,4.945,0.35,5.745-1.26c0.743-1.493-2.198-6.519-1.488-8.032c0.336-0.672,0.628-1.376,0.889-2.114
					C555.127,291.75,554.232,291.838,553.382,291.854z"/>
			</g>
			<path style="fill:#EA9049;" d="M566.027,294.609c-0.783-0.719-1.459-1.491-1.985-2.371v-0.011
				c-0.204-0.322-0.376-0.644-0.526-1.009c-1.205-0.119-0.946-2.341-0.95-2.425c-0.022-0.445-0.054-0.9-0.097-1.334l-0.217-2.407
				l-5.898,1.42c0.325,0.596,0.456,1.344,0.412,2.277c-0.011,0.239-0.022,0.499-0.065,0.77c0,0,0,0,0,0.011
				c-0.003,0.014-0.02,0.082-0.044,0.175c-0.194,0.765-0.514,1.224-1.048,1.545c-0.107,0.064-0.247,0.139-0.375,0.193
				c-0.258,0.73-0.547,1.438-0.891,2.114c-0.504,1.084-1.105,2.092-1.824,2.961c0.622,4.453,3.498,7.832,6.952,7.832
				c3.82,0,6.92-4.109,7.071-9.249C566.37,294.931,566.209,294.77,566.027,294.609z"/>
			
				<linearGradient id="SVGID_00000075129871568225934810000005569691670893181081_" gradientUnits="userSpaceOnUse" x1="543.7442" y1="342.3487" x2="575.3107" y2="342.3487">
				<stop  offset="0" style="stop-color:#170C4A"/>
				<stop  offset="0.9838" style="stop-color:#5255EE"/>
			</linearGradient>
			<path style="fill:url(#SVGID_00000075129871568225934810000005569691670893181081_);" d="M572.058,334.944l-21.917,0.506
				c-5.961,0.131-8.641,7.526-4.148,11.445l3.147,2.745l21.409,0.112C570.548,349.753,580.172,336.256,572.058,334.944z"/>
			<g>
				<path style="fill:#ED9659;" d="M569.937,274.175c-0.399-0.035-0.852,0.113-1.296,0.376c-0.586-2.682-1.999-5.536-3.739-7.5
					c-0.731-0.975-1.57-1.61-2.483-1.992c-0.494-0.241-0.995-0.403-1.495-0.446c-0.344-0.03-0.683-0.042-1.018-0.037
					c-0.335-0.005-0.674,0.007-1.018,0.037c-0.5,0.043-1.001,0.206-1.495,0.447c-0.914,0.382-1.752,1.017-2.483,1.992
					c-1.74,1.963-3.152,4.818-3.738,7.5c-0.445-0.263-0.898-0.411-1.297-0.376c-1.336,0.116-1.772,2.232-1.404,3.837
					c0.466,2.034,2.002,2.671,3.426,3.077c0.652,1.346,1.575,2.664,2.641,3.766c1.115,1.314,2.553,2.288,4.194,2.686
					c0.048,0.013,0.097,0.023,0.145,0.034c0.095,0.021,0.188,0.05,0.285,0.068c0.065,0.011,0.131,0.011,0.197,0.019
					c0.055,0.007,0.11,0.011,0.165,0.016c0.127,0.011,0.254,0.019,0.382,0.018c0.128,0.001,0.255-0.007,0.382-0.018
					c0.055-0.005,0.11-0.009,0.165-0.016c0.065-0.008,0.132-0.008,0.197-0.019c0.097-0.017,0.189-0.046,0.285-0.068
					c0.048-0.011,0.096-0.022,0.145-0.034c1.641-0.398,3.08-1.373,4.195-2.687c1.065-1.102,1.988-2.42,2.64-3.765
					c1.424-0.405,2.96-1.043,3.426-3.077C571.709,276.408,571.272,274.291,569.937,274.175z"/>
				<g>
					<path style="fill:#170C4A;" d="M560.549,283.255c0.938-0.293,1.961-0.978,2.394-2.535c0.035-0.128-0.04-0.26-0.168-0.296
						c-0.126-0.036-0.26,0.039-0.297,0.167c-0.774,2.78-3.634,2.385-3.756,2.367c-0.132-0.021-0.253,0.071-0.274,0.203
						c-0.02,0.131,0.071,0.254,0.202,0.273C558.668,283.438,559.562,283.564,560.549,283.255z"/>
				</g>
				<g>
					<path style="fill:#170C4A;" d="M564.653,275.405c0.008-0.003,0.016-0.006,0.025-0.009c0.122-0.053,0.178-0.195,0.125-0.317
						c-0.634-1.455-1.949-1.403-2.562-1.179c-0.124,0.047-0.187,0.185-0.141,0.309c0.046,0.125,0.171,0.191,0.309,0.143
						c0.043-0.016,1.342-0.476,1.951,0.92C564.41,275.385,564.537,275.441,564.653,275.405z"/>
				</g>
				<g>
					<path style="fill:#170C4A;" d="M557.39,274.471c0.005-0.007,0.009-0.015,0.013-0.023c0.061-0.119,0.014-0.264-0.105-0.324
						c-1.414-0.721-2.397,0.154-2.728,0.715c-0.066,0.115-0.027,0.261,0.087,0.328c0.115,0.067,0.253,0.039,0.329-0.086
						c0.022-0.04,0.735-1.219,2.091-0.527C557.19,274.611,557.323,274.574,557.39,274.471z"/>
				</g>
				<g>
					<path style="fill:#170C4A;" d="M558.827,281.029c-1.023-0.17-1.173-0.636-1.194-0.741c-0.013-0.062,0-0.127,0.036-0.18
						l1.378-2.058c0.074-0.111,0.219-0.142,0.333-0.066c0.109,0.073,0.14,0.223,0.065,0.332l-1.296,1.936
						c0.103,0.106,0.412,0.323,1.296,0.355c0.146,0.001,0.234,0.117,0.23,0.249c-0.005,0.133-0.116,0.236-0.249,0.231
						C559.199,281.078,559.001,281.058,558.827,281.029z"/>
				</g>
				<g>
					<path style="fill:#170C4A;" d="M555.838,277.48c0.031,0.448,0.394,0.789,0.813,0.76c0.419-0.028,0.733-0.415,0.703-0.863
						c-0.03-0.448-0.394-0.788-0.813-0.76C556.122,276.646,555.807,277.032,555.838,277.48z"/>
				</g>
				<g>
					<path style="fill:#170C4A;" d="M561.883,277.48c0.031,0.448,0.394,0.789,0.813,0.76c0.419-0.028,0.733-0.415,0.703-0.863
						c-0.03-0.448-0.394-0.788-0.813-0.76C562.167,276.646,561.852,277.032,561.883,277.48z"/>
				</g>
			</g>
			
				<linearGradient id="SVGID_00000032648772533379907710000014048583703597819323_" gradientUnits="userSpaceOnUse" x1="558.173" y1="322.7304" x2="558.173" y2="294.4281">
				<stop  offset="0" style="stop-color:#EE4921"/>
				<stop  offset="0.1586" style="stop-color:#F05530"/>
				<stop  offset="0.4284" style="stop-color:#F46443"/>
				<stop  offset="0.7057" style="stop-color:#F56D4E"/>
				<stop  offset="1" style="stop-color:#F67052"/>
			</linearGradient>
			<path style="fill:url(#SVGID_00000032648772533379907710000014048583703597819323_);" d="M573.162,334.951
				c-8.433,9.259-18.551,8.83-29.977,0.88l7.424-12.027c0.311-0.708,0.526-1.449,0.644-2.21c0.107-0.622,0.139-1.255,0.096-1.899
				c-0.054-0.998-0.279-1.974-0.665-2.929l-0.29-0.697l-1.953-4.667c-0.622-1.513-0.933-3.122-0.933-4.742
				c0-1.352,0.225-2.714,0.687-4.045v-0.011c0.429-1.255,1.041-2.446,1.92-3.444c0.418-0.461,0.837-0.923,1.266-1.373l0.011-0.011
				c0.172-0.182,0.322-0.354,0.494-0.526c0.225-0.236,0.44-0.472,0.633-0.73c0.622,4.453,3.498,7.832,6.952,7.832
				c3.82,0,6.92-4.109,7.071-9.249c0.129,0.118,0.258,0.247,0.386,0.375l0.011,0.022c1.577,1.588,2.929,3.369,4.002,5.311
				c0.15,0.472,0.322,0.933,0.526,1.352c1.695,3.423,0.526,7.929-1.277,11.437l-1.867,3.648l-1.534,3.026
				c-0.064,0.139-0.107,0.279-0.14,0.429c-0.118,0.494-0.161,1.073-0.161,1.663c0,0.365,0,0.73,0.021,1.105
				c0.054,0.633,0.279,1.266,0.622,1.813L573.162,334.951z"/>
			<g>
				<path style="fill:#ED9659;" d="M589.055,320.706l-10.537,6.933l-2.836,1.868l-1.622,1.072l-1.034-2.732
					c0.161-0.076,0.304-0.19,0.427-0.332l0.133-0.152l1.868-2.143c0,0,8.972-14.852,13.894-12.329
					C591.967,314.901,591.806,318.894,589.055,320.706z"/>
				<path style="fill:#ED9659;" d="M574.061,330.579l-0.237,0.161c-0.379,0.237-0.825,0.379-1.271,0.398l-4.657,0.123
					c0.73,1.641-5.918,5.074-7.284,2.874c0,0,3.282-5.605,3.888-6.193l0.702-0.664c0.778-0.73,1.897-0.968,2.912-0.617l3.708,1.28
					c0.408,0.142,0.844,0.104,1.204-0.095L574.061,330.579z"/>
			</g>
			<g>
				<path style="fill:#ED9659;" d="M530.044,320.706l10.537,6.933l2.836,1.868l1.622,1.072l1.034-2.732
					c-0.161-0.076-0.304-0.19-0.427-0.332l-0.133-0.152l-1.868-2.143c0,0-8.972-14.852-13.895-12.329
					C527.132,314.901,527.293,318.894,530.044,320.706z"/>
				<path style="fill:#ED9659;" d="M545.038,330.579l0.237,0.161c0.379,0.237,0.825,0.379,1.271,0.398l4.657,0.123
					c-0.73,1.641,5.918,5.074,7.284,2.874c0,0-3.281-5.605-3.889-6.193l-0.702-0.664c-0.778-0.73-1.897-0.968-2.912-0.617
					l-3.708,1.28c-0.408,0.142-0.844,0.104-1.204-0.095L545.038,330.579z"/>
			</g>
		</g>
		<g>
			
				<linearGradient id="SVGID_00000079463895351029202870000014184354126943713678_" gradientUnits="userSpaceOnUse" x1="558.463" y1="340.9341" x2="558.463" y2="308.9681">
				<stop  offset="0" style="stop-color:#CCCCCC"/>
				<stop  offset="1" style="stop-color:#FFFFFF"/>
			</linearGradient>
			<path style="fill:url(#SVGID_00000079463895351029202870000014184354126943713678_);" d="M575.112,319.708h-33.298
				c-1.071,0-1.893,0.952-1.735,2.012l2.565,17.26c-0.635,0.156-1.111,0.727-1.111,1.408l0,0c0,0.799,0.654,1.454,1.454,1.454
				h30.743c0.8,0,1.454-0.654,1.454-1.454l0,0c0-0.78-0.623-1.416-1.395-1.448l3.051-17.171
				C577.03,320.694,576.203,319.708,575.112,319.708z"/>
			<path style="fill:#FFFFFF;" d="M561.287,329.158c0.819,0.819,0.819,2.147,0,2.966c-0.819,0.819-2.147,0.819-2.966,0
				c-0.819-0.819-0.819-2.147,0-2.966C559.141,328.339,560.468,328.339,561.287,329.158z"/>
		</g>
		<g>
			<g>
				
					<linearGradient id="SVGID_00000136398224471614628870000008148682024171982765_" gradientUnits="userSpaceOnUse" x1="571.541" y1="389.2916" x2="548.4114" y2="341.5871">
					<stop  offset="0" style="stop-color:#170C4A"/>
					<stop  offset="0.9838" style="stop-color:#5255EE"/>
				</linearGradient>
				<path style="fill:url(#SVGID_00000136398224471614628870000008148682024171982765_);" d="M573.892,384.269l-3.074,2.508
					c0-0.011-0.011-0.033-0.011-0.044c-3.274-4.24-11.443-15.827-14.872-20.111c-8.435-10.577-13.485-18.146-13.263-26.326
					c0.045-1.443,0.666-2.741,1.643-3.674c0.977-0.932,2.32-1.509,3.762-1.509c3.163,0,6.005,1.887,7.225,4.795l7.569,21.576
					L573.892,384.269z"/>
				<path style="fill:#EE4921;" d="M581.209,395.467c-1.31-4.761-2.952-6.892-7.125-10.455c0,0-0.011,0-0.011-0.011
					c-0.278-0.233-0.566-0.477-0.866-0.721l-0.033,0.022l-0.011-0.033l-3.074,2.508c0.155,0.577,0.333,1.121,0.51,1.643
					c1.676,4.75,4.262,7.336,6.204,9.356C578.9,399.94,582.008,398.364,581.209,395.467z"/>
			</g>
			
				<linearGradient id="SVGID_00000049201829502540476720000015435659625322514852_" gradientUnits="userSpaceOnUse" x1="537.0479" y1="386.0489" x2="575.3562" y2="339.067">
				<stop  offset="0" style="stop-color:#170C4A"/>
				<stop  offset="0.9838" style="stop-color:#5255EE"/>
			</linearGradient>
			<path style="fill:url(#SVGID_00000049201829502540476720000015435659625322514852_);" d="M576.157,340.296
				c0.222,8.18-4.828,15.749-13.263,26.326c-3.43,4.284-11.598,15.871-14.872,20.111c0,0.011-0.011,0.033-0.011,0.044l-3.141-2.475
				c0.011,0,0.022-0.011,0.033-0.022l0.022,0.022l11.032-22.819l7.569-21.576c1.221-2.908,4.062-4.795,7.225-4.795
				c1.454,0,2.786,0.577,3.763,1.509C575.491,337.555,576.112,338.854,576.157,340.296z"/>
			<path style="fill:#EE4921;" d="M544.87,384.302c-0.544,0.455-1.054,0.888-1.521,1.288c-3.685,3.23-5.216,5.383-6.448,9.878
				c-0.81,2.897,2.297,4.473,4.395,2.309c-1.359,1.4,5.561-7.682,5.949-8.69c0.278-0.71,0.533-1.487,0.766-2.309L544.87,384.302z"/>
		</g>
		<g>
			<path style="fill:#3329B7;" d="M567.512,267.138c-0.687-1.339-1.694-2.474-3.116-3.194c-2.244-1.137-5.061-1.01-7.426-0.33
				c-2.434,0.7-4.51,2.489-5.588,4.8c-1.21,2.596-0.967,5.639,0.045,8.261c0.048,0.125,0.099,0.249,0.151,0.373
				c0.332,0.785,0.983,1.917,1.783,2.295c0.112-1.804,0.099-3.504,0.891-5.182c0.463-0.98,0.917-1.904,1.598-2.756
				c0.337-0.422,0.713-0.816,1.051-1.236c0.233-0.289,0.404-0.728,0.77-0.849c-0.279,1.123-0.527,2.049-0.419,3.225
				c0.115,1.244,1.202,2.196,1.302,3.427c0.18-0.641,0.828-1.311,1.242-1.834c0.598-0.754,1.394-1.318,2.229-1.796
				c0.517-0.296,1.021-0.595,1.505-0.913c0.238,0.729,0.482,1.454,0.814,2.158c0.446,0.944,1.154,1.615,1.644,2.497
				c0.346,0.622,0.753,1.294,0.947,1.984c0.135,0.483,0.101,1.006,0.206,1.472c1.148-1.436,1.489-3.595,1.599-5.363
				C568.883,271.877,568.597,269.253,567.512,267.138z"/>
		</g>
		<g>
			<path style="fill:#3329B7;" d="M565.155,274.527c0.208,0.326,0.457,0.621,0.689,0.938c0.405,0.555,0.396,0.962,0.438,1.628
				c0.097,1.54,0.116,3.116-0.291,4.613c-0.297,1.094-0.763,2.142-1.003,3.252c-0.341,1.574-0.83,2.972-1.396,4.484
				c-1.123,3.005-2.713,6.4-1.577,9.612c0.391,1.107,0.872,2.004,1.587,2.928c0.424,0.547,1.017,0.808,1.572,1.211
				c-0.73-0.789-0.088-2.623,0.19-3.451s0.705-1.537,1.143-2.286c0.637-1.09,1.076-2.283,1.51-3.468
				c0.847-2.312,1.51-4.946,1.687-7.405c0.075-1.04,0.17-2.095,0.167-3.139c-0.004-1.367-0.304-2.635-0.617-3.952
				c-0.349-1.472-0.218-2.436-0.498-7.188"/>
		</g>
		<g>
			<path style="fill:#3329B7;" d="M554.107,272.973c-0.208,0.326-0.645,3.454-0.687,4.121c-0.097,1.54-0.116,3.116,0.291,4.613
				c0.297,1.094,0.763,2.142,1.003,3.252c0.341,1.574,0.83,2.972,1.396,4.484c1.123,3.005,2.713,6.4,1.577,9.612
				c-0.391,1.107-0.871,2.004-1.587,2.928c-0.424,0.547-1.018,0.808-1.572,1.211c0.73-0.789,0.088-2.623-0.19-3.451
				c-0.277-0.827-0.705-1.537-1.143-2.286c-0.637-1.09-1.077-2.283-1.51-3.468c-0.847-2.312-1.51-4.946-1.687-7.405
				c-0.075-1.04-0.17-2.095-0.167-3.139c0.003-1.367,0.304-2.635,0.617-3.952c0.349-1.472,0.218-2.436,0.498-7.188"/>
		</g>
	</g>
	<g>
		
			<linearGradient id="SVGID_00000159437427607870425610000003445840385896840375_" gradientUnits="userSpaceOnUse" x1="563.3503" y1="203.8312" x2="509.6284" y2="220.0789">
			<stop  offset="0" style="stop-color:#EE4921"/>
			<stop  offset="0.1586" style="stop-color:#F05530"/>
			<stop  offset="0.4284" style="stop-color:#F46443"/>
			<stop  offset="0.7057" style="stop-color:#F56D4E"/>
			<stop  offset="1" style="stop-color:#F67052"/>
		</linearGradient>
		<path style="fill:url(#SVGID_00000159437427607870425610000003445840385896840375_);" d="M571.271,222.118
			c-1.248,2.995-4.474,4.447-9.346,4.548c-1.266,0.037-2.533-0.037-3.781-0.203c-3.393-0.453-6.665-1.609-9.642-3.319
			l-19.977-11.463l-2.154-1.239c-1.72-0.989-3.661-1.488-5.574-1.488c-2.062,0-4.142,0.573-5.963,1.719
			c-3.966,2.496-5.972,7.183-5.02,11.787l1.359,6.527l-0.019,0.129l-13.571,17.278c-0.823-0.268-2.089-0.675-3.605-1.146
			l16.797-41.915c3.291-8.172,12.323-12.757,20.652-9.882l11.824,4.465l0.009,0.009l17.472,6.027
			c5.861,2.006,10.271,7.09,11.019,13.229C571.992,219.15,571.817,220.777,571.271,222.118z"/>
		
			<linearGradient id="SVGID_00000069399724245102685530000013252632494562854574_" gradientUnits="userSpaceOnUse" x1="537.4457" y1="236.45" x2="483.7237" y2="252.6976">
			<stop  offset="0" style="stop-color:#EE4921"/>
			<stop  offset="0.1586" style="stop-color:#F05530"/>
			<stop  offset="0.4284" style="stop-color:#F46443"/>
			<stop  offset="0.7057" style="stop-color:#F56D4E"/>
			<stop  offset="1" style="stop-color:#F67052"/>
		</linearGradient>
		<path style="fill:url(#SVGID_00000069399724245102685530000013252632494562854574_);" d="M558.163,226.472l-31.311-0.592
			l-2.625,47.6c-1.072,0.277-2.311,0.592-3.633,0.924l-9.42-45.418l-1.359-6.527c-0.952-4.604,1.054-9.291,5.02-11.787
			c1.821-1.146,3.901-1.719,5.963-1.719c1.914,0,3.855,0.499,5.574,1.488l2.154,1.239l29.619,14.782L558.163,226.472z"/>
		
			<linearGradient id="SVGID_00000079451200396765371080000015059090707870419591_" gradientUnits="userSpaceOnUse" x1="572.9898" y1="315.782" x2="571.1364" y2="277.1256">
			<stop  offset="0" style="stop-color:#EE4921"/>
			<stop  offset="0.1586" style="stop-color:#F05530"/>
			<stop  offset="0.4284" style="stop-color:#F46443"/>
			<stop  offset="0.7057" style="stop-color:#F56D4E"/>
			<stop  offset="1" style="stop-color:#F67052"/>
		</linearGradient>
		<path style="fill:url(#SVGID_00000079451200396765371080000015059090707870419591_);" d="M571.273,222.119h-0.01
			c0.558-1.336,0.728-2.971,0.489-4.936c-0.748-6.142-5.165-11.227-11.017-13.241l-8.251-2.847
			c7.984-9.99,11.177-19.869,6.308-38.931l6.619-3.757C587.973,186.425,585.66,206.256,571.273,222.119z"/>
		
			<linearGradient id="SVGID_00000053525771416671073420000014756250317514856630_" gradientUnits="userSpaceOnUse" x1="572.6795" y1="202.2828" x2="553.4901" y2="168.8384">
			<stop  offset="0" style="stop-color:#170C4A"/>
			<stop  offset="0.9838" style="stop-color:#5255EE"/>
		</linearGradient>
		<path style="fill:url(#SVGID_00000053525771416671073420000014756250317514856630_);" d="M571.273,222.119h-0.01
			c0.558-1.336,0.728-2.971,0.489-4.936c-0.748-6.142-5.165-11.227-11.017-13.241l-8.251-2.847
			c7.984-9.99,11.177-19.869,6.308-38.931l6.619-3.757C587.973,186.425,585.66,206.256,571.273,222.119z"/>
		
			<linearGradient id="SVGID_00000162339398831187367720000015137590120825144704_" gradientUnits="userSpaceOnUse" x1="597.1036" y1="209.4692" x2="559.7115" y2="181.288">
			<stop  offset="0" style="stop-color:#170C4A"/>
			<stop  offset="0.9838" style="stop-color:#5255EE"/>
		</linearGradient>
		<path style="fill:url(#SVGID_00000162339398831187367720000015137590120825144704_);" d="M535.827,191.028
			c0.125-0.279,1.246-4.284,1.246-4.284l34.783,5.11l-8.272-15.803c-1.521-2.905-2.589-6.094-2.605-9.373
			c-0.021-4.241,2.321-7.567,7.075-5.902c4.367,1.528,7.837,4.927,9.743,9.142c9.895,21.882,9.152,34.614-6.727,34.892
			c-4.541,0.08-9.01-1.148-13.005-3.309L535.827,191.028z"/>
		<path style="fill:#F7B8B7;" d="M537.074,186.744l-1.246,4.284l-10.24-4.197C527.191,182.77,531.336,182.782,537.074,186.744z"/>
		<path style="fill:#E0E7EE;" d="M540.285,196.888L540.285,196.888l-24.301-9.425c0,0-3.798-27.642-3.517-27.642l0,0
			c2.065,0,3.823,1.504,4.142,3.544l3.313,21.144l18.27,7.488C540.108,192.782,541.04,194.96,540.285,196.888z"/>
		<path style="fill:#EA9049;" d="M565.41,158.408l-3.908-6.228l-5.982,2.576c1.881,2.461,3.272,7.41,3.272,7.41L565.41,158.408z"/>
		<g>
			<path style="fill:#ED9659;" d="M561.872,143.595c-0.936-1.992-2.354-3.769-4.001-5.275c-1.493-1.364-3.601-2.854-5.745-2.545
				c-1.188,0.172-2.368,0.537-3.344,1.255c-1.095,0.805-1.808,1.988-2.216,3.27c-0.625,1.964-0.639,4.098-0.494,6.134
				c0.053,0.74,0.132,1.479,0.231,2.214c0.106,0.79,0.288,1.632,0.164,2.443c-0.054,0.353-0.096,0.709-0.127,1.064
				c-0.02,0.224-0.083,0.535-0.002,0.753c0.134,0.364,0.695,0.364,1.104,0.332c0.036-0.003,0.067-0.017,0.094-0.036
				c1.596,3.085,4.745,5.38,8.091,5.192c2.105-0.118,3.783-1.822,4.891-3.468C562.765,151.591,563.646,147.371,561.872,143.595z"/>
			<g>
				<g>
					<path style="fill:#170C4A;" d="M550.908,153.305c0.576-0.678,1.027-1.696,0.605-3.096c-0.035-0.115-0.156-0.18-0.271-0.146
						c-0.114,0.034-0.18,0.155-0.146,0.271c0.752,2.499-1.626,3.58-1.728,3.626c-0.111,0.048-0.159,0.177-0.112,0.287
						c0.048,0.11,0.177,0.16,0.287,0.111C549.558,154.354,550.302,154.018,550.908,153.305z"/>
				</g>
			</g>
			<g>
				<path style="fill:#170C4A;" d="M549.158,149.127c0.125,0.428-0.118,0.875-0.543,1c-0.425,0.124-0.871-0.122-0.996-0.55
					c-0.125-0.428,0.118-0.875,0.543-0.999C548.587,148.454,549.033,148.7,549.158,149.127z"/>
			</g>
			<g>
				<g>
					<path style="fill:#170C4A;" d="M549.654,146.672c0.006-0.005,0.012-0.01,0.018-0.016c0.087-0.083,0.09-0.221,0.007-0.308
						c-0.993-1.037-2.093-0.583-2.543-0.202c-0.091,0.078-0.101,0.215-0.023,0.306c0.078,0.092,0.204,0.109,0.307,0.025
						c0.031-0.027,0.991-0.822,1.943,0.173C549.441,146.731,549.566,146.739,549.654,146.672z"/>
				</g>
			</g>
		</g>
		<g>
			<path style="fill:#EE4921;" d="M512.208,284.361c-1.572,0.527-3.236-0.712-0.878-2.478l9.291-7.377l-0.028-0.102
				c1.322-0.333,2.561-0.647,3.633-0.924l-0.009,0.139C528.414,278.602,523.431,280.441,512.208,284.361z"/>
			<path style="fill:#EE4921;" d="M497.445,246.569c0.749,6.471-4.428,5.26-15.956,2.32c-1.599-0.425-2.293-2.394,0.647-2.551
				l11.805-1.017l0.037-0.074c1.516,0.471,2.783,0.878,3.605,1.146L497.445,246.569z"/>
		</g>
		<g>
			<g>
				<path style="fill:#EE4921;" d="M565.31,144.76c-0.038-1.113-0.543-1.67-1.171-2.52c0.678-0.896,0.574-2.393,0.146-3.378
					c-0.311-0.717-1.289-1.8-2.144-1.726c-0.158-1.229-1.356-2.726-2.363-3.36c-0.42-0.265-2.113-0.906-1.958,0.155
					c-0.928-1.315-5.263-2.328-5.759-0.437c-1.123-0.284-2.298,0.067-3.344,0.47c-0.51,0.197-1.205,0.385-1.464,0.926
					c-0.231,0.482,0.151,0.412-0.378,0.662c-0.324,0.153-0.849,0.186-1.208,0.335c-0.547,0.227-1.12,0.461-1.54,0.893
					c-0.598,0.616-1.354,2.165-1.257,3.075c0,0-1.181,1.329,0.118,2.895c0.543,0.654,0.48,1.301,1.206,1.871
					c0.805,0.632,1.997,0.883,2.966,0.453c0.803-0.357,0.857-0.737,1.731-0.733c0.903,0.004,1.715-0.058,2.568-0.383
					c0.692-0.263,0.991-0.764,1.595-1.105c0.436,1.147,0.67,2.087,1.858,2.57c-0.223,0.874-0.566,1.609-0.079,2.507
					c0.555,1.023,1.129,1.055,2.01,1.305c-0.402-0.25-0.443-1.021-0.324-1.441c0.195-0.695,0.844-1.256,1.517-1.183
					c4.207,0.458,2.174,5.42,2.174,5.42c0.277,1.524,2.279,1.27,3.145,0.699c1.225-0.808,1.779-2.965,0.913-4.267
					C565.24,147.493,565.355,146.081,565.31,144.76z"/>
			</g>
		</g>
	</g>
	<g>
		<g>
			
				<linearGradient id="SVGID_00000121256513823368408320000004763873835274026646_" gradientUnits="userSpaceOnUse" x1="206.47" y1="119.8799" x2="192.1414" y2="79.8184">
				<stop  offset="0" style="stop-color:#EE4921"/>
				<stop  offset="0.1586" style="stop-color:#F05530"/>
				<stop  offset="0.4284" style="stop-color:#F46443"/>
				<stop  offset="0.7057" style="stop-color:#F56D4E"/>
				<stop  offset="1" style="stop-color:#F67052"/>
			</linearGradient>
			<path style="fill:url(#SVGID_00000121256513823368408320000004763873835274026646_);" d="M215.687,90.431l7.103,12.939
				c-3.551,6.609-8.723,11.749-15.418,15.472c-5.204,2.918-11.33,4.989-18.347,6.244c-0.064,0.011-0.14,0.021-0.204,0.032
				l-8.573-16.416c0.032-0.032,0.054-0.075,0.086-0.118c3.541-4.989,7.553-8.937,12.038-11.856
				C199.099,92.33,206.889,90.259,215.687,90.431z"/>
			
				<linearGradient id="SVGID_00000054958699375991510950000009855704254296809363_" gradientUnits="userSpaceOnUse" x1="211.7989" y1="75.0014" x2="232.8997" y2="112.5537">
				<stop  offset="0" style="stop-color:#CCCCCC"/>
				<stop  offset="1" style="stop-color:#FFFFFF"/>
			</linearGradient>
			<path style="fill:url(#SVGID_00000054958699375991510950000009855704254296809363_);" d="M226.609,93.585
				c-0.944,3.562-2.21,6.824-3.82,9.785l-7.103-12.939c1.921,0.032,3.884,0.172,5.901,0.418c1.051,0.15,2.275,0.333,3.68,0.558
				c0.204,0.032,0.397,0.107,0.569,0.215c0.086,0.054,0.172,0.118,0.247,0.182C226.566,92.233,226.781,92.92,226.609,93.585z"/>
			
				<linearGradient id="SVGID_00000057140633167994694260000008700051881404681127_" gradientUnits="userSpaceOnUse" x1="184.349" y1="104.34" x2="205.4498" y2="141.8923">
				<stop  offset="0" style="stop-color:#CCCCCC"/>
				<stop  offset="0.7197" style="stop-color:#F1F1F1"/>
				<stop  offset="1" style="stop-color:#FFFFFF"/>
			</linearGradient>
			<path style="fill:url(#SVGID_00000057140633167994694260000008700051881404681127_);" d="M207.376,118.845
				c-7.076,6.625-14.131,12.124-21.183,15.252l2.827-9.012C196.041,123.832,202.167,121.761,207.376,118.845z"/>
			
				<linearGradient id="SVGID_00000036968315409627225600000005019145758876825739_" gradientUnits="userSpaceOnUse" x1="177.1561" y1="94.4672" x2="198.257" y2="132.0197">
				<stop  offset="0" style="stop-color:#CCCCCC"/>
				<stop  offset="1" style="stop-color:#FFFFFF"/>
			</linearGradient>
			<path style="fill:url(#SVGID_00000036968315409627225600000005019145758876825739_);" d="M192.367,96.733
				c-4.479,2.92-8.488,6.865-12.035,11.854l-11.145-3.496C175.445,101.294,183.47,98.706,192.367,96.733z"/>
			
				<linearGradient id="SVGID_00000057149056560548856360000016577581745505231283_" gradientUnits="userSpaceOnUse" x1="178.1798" y1="93.8921" x2="199.2805" y2="131.4444">
				<stop  offset="0" style="stop-color:#CCCCCC"/>
				<stop  offset="1" style="stop-color:#FFFFFF"/>
			</linearGradient>
			<polygon style="fill:url(#SVGID_00000057149056560548856360000016577581745505231283_);" points="176.326,121.199 
				180.643,113.887 202.02,105.713 185.085,121.1 			"/>
			<path style="fill:#E0E7EE;" d="M205.774,99.165c-0.962,3.069,0.745,6.337,3.814,7.3c3.069,0.963,6.337-0.745,7.3-3.814
				c0.963-3.069-0.745-6.337-3.814-7.3C210.005,94.389,206.736,96.096,205.774,99.165z"/>
		</g>
		<g>
			<g>
				<path style="fill:none;stroke:#372E62;stroke-width:2.1458;stroke-linecap:round;stroke-linejoin:round;" d="M174.607,121.13
					c-0.159-0.046-1.035,0.351-2.403,1.154"/>
				
					<path style="fill:none;stroke:#372E62;stroke-width:2.1458;stroke-linecap:round;stroke-linejoin:round;stroke-dasharray:5.6099,5.6099;" d="
					M167.531,125.379c-15.455,11.221-47.207,43.376-1.161,81.158"/>
				<path style="fill:none;stroke:#372E62;stroke-width:2.1458;stroke-linecap:round;stroke-linejoin:round;" d="M168.57,208.3
					c0.693,0.543,1.403,1.087,2.13,1.632"/>
			</g>
		</g>
	</g>
	<g>
		<g>
			
				<linearGradient id="SVGID_00000075125142753449604810000016906073370381063607_" gradientUnits="userSpaceOnUse" x1="-45.4818" y1="-838.7515" x2="-70.9607" y2="-909.9886" gradientTransform="matrix(0.6389 -0.7693 0.7693 0.6389 1083.817 720.9859)">
				<stop  offset="0" style="stop-color:#EE4921"/>
				<stop  offset="0.1586" style="stop-color:#F05530"/>
				<stop  offset="0.4284" style="stop-color:#F46443"/>
				<stop  offset="0.7057" style="stop-color:#F56D4E"/>
				<stop  offset="1" style="stop-color:#F67052"/>
			</linearGradient>
			<path style="fill:url(#SVGID_00000075125142753449604810000016906073370381063607_);" d="M361.729,206.818
				c3.556,6.606,8.72,11.742,15.414,15.47c5.21,2.915,11.335,4.986,18.357,6.24c0.062,0.01,0.135,0.026,0.197,0.036l8.577-16.415
				c-0.032-0.039-0.055-0.08-0.086-0.119c-3.546-4.989-7.556-8.934-12.035-11.854c-6.73-4.4-14.517-6.478-23.317-6.305
				c-3.068,0.054-6.264,0.383-9.58,0.984c-0.999,0.177-1.597,1.194-1.341,2.168C358.858,200.592,360.126,203.855,361.729,206.818z"
				/>
			
				<linearGradient id="SVGID_00000085945564258020652010000017012090162068941214_" gradientUnits="userSpaceOnUse" x1="379.1854" y1="241.3965" x2="415.6651" y2="192.3992">
				<stop  offset="0" style="stop-color:#CCCCCC"/>
				<stop  offset="1" style="stop-color:#FFFFFF"/>
			</linearGradient>
			<path style="fill:url(#SVGID_00000085945564258020652010000017012090162068941214_);" d="M377.143,222.288
				c7.076,6.625,14.131,12.124,21.183,15.252l-2.827-9.012C388.479,227.274,382.353,225.203,377.143,222.288z"/>
			
				<linearGradient id="SVGID_00000013896147435193884860000008177327683867334273_" gradientUnits="userSpaceOnUse" x1="377.2409" y1="239.9487" x2="413.7204" y2="190.9518">
				<stop  offset="0" style="stop-color:#CCCCCC"/>
				<stop  offset="1" style="stop-color:#FFFFFF"/>
			</linearGradient>
			<path style="fill:url(#SVGID_00000013896147435193884860000008177327683867334273_);" d="M392.152,200.175
				c4.479,2.92,8.488,6.865,12.035,11.854l11.145-3.496C409.075,204.736,401.049,202.148,392.152,200.175z"/>
			
				<linearGradient id="SVGID_00000115506269911583908690000010644696117102489766_" gradientUnits="userSpaceOnUse" x1="377.8482" y1="240.401" x2="414.3279" y2="191.4039">
				<stop  offset="0" style="stop-color:#CCCCCC"/>
				<stop  offset="1" style="stop-color:#FFFFFF"/>
			</linearGradient>
			<polygon style="fill:url(#SVGID_00000115506269911583908690000010644696117102489766_);" points="408.194,224.641 
				403.877,217.329 382.499,209.156 399.434,224.542 			"/>
			<path style="fill:#E0E7EE;" d="M378.746,202.607c0.962,3.069-0.745,6.337-3.814,7.3c-3.069,0.963-6.337-0.745-7.3-3.814
				c-0.963-3.069,0.745-6.337,3.814-7.3C374.515,197.831,377.783,199.538,378.746,202.607z"/>
			
				<linearGradient id="SVGID_00000103959254964420817910000002902282993072728976_" gradientUnits="userSpaceOnUse" x1="347.5455" y1="217.8399" x2="384.0252" y2="168.8426">
				<stop  offset="0" style="stop-color:#CCCCCC"/>
				<stop  offset="1" style="stop-color:#FFFFFF"/>
			</linearGradient>
			<path style="fill:url(#SVGID_00000103959254964420817910000002902282993072728976_);" d="M361.729,206.818l7.107-12.948
				c-0.47-0.292-2.935-0.061-9.58,0.984c-1.002,0.158-1.597,1.194-1.341,2.168C358.858,200.592,360.126,203.855,361.729,206.818z"/>
		</g>
		<g>
			<g>
				<path style="fill:none;stroke:#372E62;stroke-width:2.1458;stroke-linecap:round;stroke-linejoin:round;" d="M409.912,224.572
					c0.159-0.046,1.035,0.351,2.403,1.154"/>
				
					<path style="fill:none;stroke:#372E62;stroke-width:2.1458;stroke-linecap:round;stroke-linejoin:round;stroke-dasharray:5.6099,5.6099;" d="
					M416.989,228.821c15.455,11.221,47.207,43.376,1.161,81.158"/>
				<path style="fill:none;stroke:#372E62;stroke-width:2.1458;stroke-linecap:round;stroke-linejoin:round;" d="M415.949,311.742
					c-0.693,0.543-1.403,1.087-2.13,1.632"/>
			</g>
		</g>
	</g>
</g>
<g id="DESIGNED_BY_FREEPIK">
	<g>
		<g>
			<g id="XMLID_29_">
				<g id="XMLID_48_">
					<path id="XMLID_56_" style="fill:#1D262D;" d="M385.104,465.465c-0.433,0.443-0.804,0.931-1.108,1.453l-0.465-0.241
						c-0.066-0.298-0.35-0.502-0.659-0.466c-0.331,0.039-0.567,0.339-0.529,0.67c0.04,0.331,0.339,0.567,0.67,0.528
						c0.065-0.008,0.127-0.025,0.184-0.052l0.451,0.234c-0.251,0.554-0.432,1.139-0.539,1.743l0.747,0.132
						c0.23-1.306,0.85-2.507,1.792-3.473L385.104,465.465z"/>
					<path id="XMLID_55_" style="fill:#1D262D;" d="M390.591,463.164c-0.171,0-0.341,0.006-0.508,0.017l-0.075-0.626
						c0.188-0.149,0.296-0.389,0.267-0.645c-0.047-0.394-0.403-0.674-0.796-0.628c-0.394,0.046-0.675,0.402-0.628,0.795
						c0.031,0.254,0.19,0.462,0.404,0.564l0.074,0.625c-0.715,0.116-1.403,0.332-2.061,0.646l0.327,0.684
						c0.935-0.446,1.941-0.673,2.995-0.673c0.498,0,0.993,0.053,1.476,0.157l0.161-0.74
						C391.692,463.222,391.142,463.164,390.591,463.164z"/>
					<path id="XMLID_54_" style="fill:#1D262D;" d="M397.195,465.711c0.33-0.04,0.566-0.342,0.525-0.672
						c-0.041-0.331-0.342-0.566-0.672-0.526c-0.31,0.038-0.536,0.305-0.531,0.609l-0.416,0.363c-0.418-0.431-0.888-0.813-1.406-1.14
						l-0.404,0.642c1.135,0.715,2.02,1.726,2.563,2.925l0.691-0.313c-0.252-0.554-0.569-1.071-0.944-1.545l0.402-0.351
						C397.066,465.715,397.128,465.718,397.195,465.711z"/>
					<path id="XMLID_53_" style="fill:#1D262D;" d="M390.044,473.372c-0.386,0.023-0.776,0.035-1.157,0.035
						c-0.879,0-1.733-0.061-2.478-0.18c-0.391-0.062-0.846-0.154-1.271-0.292c1.047,1.861,3.07,3.125,5.389,3.125
						c2.856,0,5.264-1.916,5.949-4.504c-0.681,0.45-1.505,0.825-2.458,1.123C392.839,473.047,391.464,473.287,390.044,473.372z"/>
					<path id="XMLID_49_" style="fill:#1D262D;" d="M390.591,464.679c-3.352,0-6.079,2.667-6.079,5.943
						c0,0.426,0.046,0.85,0.138,1.262c0.674,0.482,2.705,0.89,5.347,0.731c2.88-0.174,5.298-0.958,6.673-2.159
						c-0.006-0.194-0.022-0.39-0.045-0.582C396.244,466.913,393.65,464.679,390.591,464.679z M388.433,471.194
						c-1.02,0-1.85-0.829-1.85-1.85c0-1.02,0.829-1.85,1.85-1.85c1.019,0,1.85,0.83,1.85,1.85
						C390.283,470.365,389.452,471.194,388.433,471.194z M393.169,470.286c-0.75,0-1.361-0.609-1.361-1.359s0.611-1.361,1.361-1.361
						c0.751,0,1.36,0.611,1.36,1.361S393.921,470.286,393.169,470.286z"/>
				</g>
				<path id="XMLID_46_" style="fill:#1D262D;" d="M406.595,466.546c-0.295-0.116-0.805-0.309-1.383-0.237
					c-0.551,0.068-0.844,0.341-0.844,1.007v0.866h2.228v1.717h-2.228v5.455h-1.932v-5.455h-1.338v-1.717h1.338v-0.889
					c0-1.68,0.897-2.782,2.568-2.782c0.643,0,1.157,0.121,1.59,0.308V466.546z"/>
				<path id="XMLID_44_" style="fill:#1D262D;" d="M411.298,469.878c-0.178-0.029-0.357-0.046-0.526-0.046
					c-0.895,0-1.51,0.548-1.51,1.613v3.908h-1.933v-7.172h1.873v0.784c0.451-0.673,1.14-0.977,2.022-0.977
					c0.413,0,0.847,0.127,1.094,0.337L411.298,469.878z"/>
				<path id="XMLID_41_" style="fill:#1D262D;" d="M418.966,471.756c0,0.223-0.017,0.489-0.037,0.652h-5.086
					c0.207,1.035,0.933,1.487,1.844,1.487c0.621,0,1.295-0.252,1.813-0.689l1.134,1.243c-0.815,0.748-1.851,1.088-3.058,1.088
					c-2.197,0-3.723-1.495-3.723-3.752c0-2.258,1.48-3.797,3.626-3.797C417.544,467.99,418.958,469.522,418.966,471.756z
					 M413.851,471.09h3.175c-0.177-0.918-0.731-1.436-1.561-1.436C414.554,469.655,414.021,470.203,413.851,471.09z"/>
				<path id="XMLID_38_" style="fill:#1D262D;" d="M426.619,471.756c0,0.223-0.016,0.489-0.037,0.652h-5.085
					c0.208,1.035,0.933,1.487,1.844,1.487c0.622,0,1.296-0.252,1.814-0.689l1.133,1.243c-0.815,0.748-1.852,1.088-3.059,1.088
					c-2.198,0-3.723-1.495-3.723-3.752c0-2.258,1.481-3.797,3.628-3.797C425.197,467.99,426.611,469.522,426.619,471.756z
					 M421.505,471.09h3.174c-0.178-0.918-0.733-1.436-1.562-1.436C422.208,469.655,421.675,470.203,421.505,471.09z"/>
				<path id="XMLID_35_" style="fill:#1D262D;" d="M434.965,471.764c0,2.154-1.495,3.774-3.473,3.774
					c-0.962,0-1.643-0.377-2.109-0.933v3.709h-1.925v-10.133h1.888v0.792c0.467-0.585,1.154-0.984,2.139-0.984
					C433.47,467.99,434.965,469.61,434.965,471.764z M429.287,471.764c0,1.133,0.748,1.977,1.844,1.977
					c1.141,0,1.85-0.881,1.85-1.977s-0.709-1.977-1.85-1.977C430.035,469.788,429.287,470.631,429.287,471.764z"/>
				<path id="XMLID_32_" style="fill:#1D262D;" d="M438.068,465.836c0,0.696-0.541,1.228-1.236,1.228
					c-0.695,0-1.228-0.532-1.228-1.228c0-0.695,0.533-1.243,1.228-1.243C437.527,464.592,438.068,465.14,438.068,465.836z
					 M437.808,475.354h-1.932v-7.172h1.932V475.354z"/>
				<path id="XMLID_30_" style="fill:#1D262D;" d="M441.033,470.736l2.701-2.554h2.369l-3.479,3.375l3.5,3.797h-2.375l-2.717-2.901
					v2.901H439.1v-10.658h1.933V470.736z"/>
			</g>
			<g>
				<path style="fill:#1D262D;" d="M309.413,475.289v-1.055c-0.526,0.718-1.392,1.23-2.388,1.23c-1.846,0-3.149-1.406-3.149-3.705
					c0-2.257,1.29-3.721,3.149-3.721c0.953,0,1.816,0.469,2.388,1.245v-3.765h1.099v9.77H309.413z M309.413,473.37v-3.207
					c-0.396-0.615-1.245-1.143-2.124-1.143c-1.421,0-2.27,1.172-2.27,2.739c0,1.567,0.85,2.724,2.27,2.724
					C308.167,474.483,309.017,473.986,309.413,473.37z"/>
				<path style="fill:#1D262D;" d="M311.933,471.745c0-2.051,1.464-3.706,3.484-3.706c2.139,0,3.398,1.67,3.398,3.793v0.279h-5.726
					c0.087,1.333,1.024,2.445,2.548,2.445c0.807,0,1.627-0.322,2.182-0.894l0.527,0.719c-0.703,0.703-1.654,1.083-2.813,1.083
					C313.441,475.464,311.933,473.956,311.933,471.745z M315.404,468.947c-1.51,0-2.256,1.274-2.314,2.358h4.643
					C317.717,470.25,317.015,468.947,315.404,468.947z"/>
				<path style="fill:#1D262D;" d="M319.607,474.351l0.572-0.79c0.468,0.542,1.361,1.011,2.329,1.011
					c1.083,0,1.669-0.514,1.669-1.217c0-1.713-4.379-0.658-4.379-3.28c0-1.099,0.951-2.036,2.636-2.036
					c1.202,0,2.051,0.454,2.622,1.025l-0.512,0.762c-0.426-0.513-1.202-0.894-2.111-0.894c-0.967,0-1.567,0.483-1.567,1.113
					c0,1.552,4.38,0.527,4.38,3.281c0,1.187-0.952,2.138-2.782,2.138C321.306,475.464,320.325,475.113,319.607,474.351z"/>
				<path style="fill:#1D262D;" d="M326.478,466.471c0-0.41,0.336-0.747,0.732-0.747c0.411,0,0.747,0.337,0.747,0.747
					c0,0.41-0.336,0.732-0.747,0.732C326.814,467.204,326.478,466.881,326.478,466.471z M326.667,475.289v-7.074h1.1v7.074H326.667z
					"/>
				<path style="fill:#1D262D;" d="M329.583,477.105l0.555-0.82c0.586,0.703,1.289,0.967,2.3,0.967c1.172,0,2.271-0.571,2.271-2.124
					v-1.011c-0.513,0.718-1.377,1.26-2.373,1.26c-1.846,0-3.148-1.377-3.148-3.662c0-2.27,1.288-3.676,3.148-3.676
					c0.952,0,1.802,0.469,2.373,1.245v-1.069h1.1v6.87c0,2.343-1.642,3.075-3.37,3.075
					C331.238,478.16,330.417,477.925,329.583,477.105z M334.708,473.253v-3.09c-0.381-0.615-1.23-1.143-2.109-1.143
					c-1.42,0-2.27,1.128-2.27,2.694c0,1.554,0.85,2.695,2.27,2.695C333.478,474.41,334.328,473.869,334.708,473.253z"/>
				<path style="fill:#1D262D;" d="M342.413,475.289v-4.629c0-1.244-0.63-1.64-1.582-1.64c-0.864,0-1.685,0.527-2.094,1.099v5.17
					h-1.1v-7.074h1.1v1.025c0.497-0.586,1.465-1.201,2.519-1.201c1.479,0,2.255,0.747,2.255,2.284v4.966H342.413z"/>
				<path style="fill:#1D262D;" d="M344.933,471.745c0-2.051,1.464-3.706,3.486-3.706c2.139,0,3.397,1.67,3.397,3.793v0.279h-5.726
					c0.086,1.333,1.023,2.445,2.547,2.445c0.807,0,1.626-0.322,2.183-0.894l0.528,0.719c-0.703,0.703-1.656,1.083-2.813,1.083
					C346.441,475.464,344.933,473.956,344.933,471.745z M348.404,468.947c-1.508,0-2.256,1.274-2.313,2.358h4.642
					C350.718,470.25,350.015,468.947,348.404,468.947z"/>
				<path style="fill:#1D262D;" d="M358.35,475.289v-1.055c-0.526,0.718-1.392,1.23-2.388,1.23c-1.846,0-3.15-1.406-3.15-3.705
					c0-2.257,1.29-3.721,3.15-3.721c0.953,0,1.816,0.469,2.388,1.245v-3.765h1.099v9.77H358.35z M358.35,473.37v-3.207
					c-0.396-0.615-1.245-1.143-2.124-1.143c-1.421,0-2.27,1.172-2.27,2.739c0,1.567,0.85,2.724,2.27,2.724
					C357.105,474.483,357.955,473.986,358.35,473.37z"/>
				<path style="fill:#1D262D;" d="M364.692,475.289v-9.77h1.099v3.765c0.572-0.776,1.422-1.245,2.389-1.245
					c1.846,0,3.148,1.464,3.148,3.721c0,2.299-1.303,3.705-3.148,3.705c-0.996,0-1.861-0.513-2.389-1.23v1.055H364.692z
					 M367.9,474.483c1.436,0,2.285-1.156,2.285-2.724c0-1.567-0.85-2.739-2.285-2.739c-0.863,0-1.729,0.527-2.109,1.143v3.207
					C366.171,473.986,367.037,474.483,367.9,474.483z"/>
				<path style="fill:#1D262D;" d="M372.529,477.061c0.162,0.073,0.426,0.117,0.601,0.117c0.483,0,0.805-0.161,1.054-0.747
					l0.47-1.069l-2.959-7.147h1.185l2.358,5.8l2.345-5.8h1.199l-3.544,8.51c-0.425,1.025-1.142,1.421-2.08,1.436
					c-0.233,0-0.601-0.044-0.806-0.103L372.529,477.061z"/>
			</g>
		</g>
	</g>
</g>
</svg>
